<?xml version="1.0" encoding="UTF-8"?>
<svg version="1.1" xmlns="http://www.w3.org/2000/svg" width="1251" height="1250">
<path d="M0 0 C2.35473633 1.18896484 2.35473633 1.18896484 4.83203125 2.7109375 C6.25346436 3.57501221 6.25346436 3.57501221 7.70361328 4.45654297 C9.24251221 5.4061792 9.24251221 5.4061792 10.8125 6.375 C12.47189438 7.38529218 14.13131456 8.39554299 15.79162598 9.40432739 C16.97401784 10.12295578 18.15589061 10.84243885 19.33728027 11.56271362 C26.72790227 16.06497189 34.17847309 20.46608215 41.625 24.875 C44.22173017 26.41342888 46.81807486 27.95250599 49.4140625 29.4921875 C50.35944633 30.05286926 50.35944633 30.05286926 51.32392883 30.62487793 C56.34982077 33.60826384 61.36190916 36.61428012 66.37164307 39.62469482 C72.69197158 43.42035208 79.03291513 47.1809568 85.37524414 50.93969727 C96.76815037 57.69254304 108.14317887 64.47377128 119.49243164 71.29980469 C125.21005064 74.7354096 130.93705207 78.15450333 136.67578125 81.5546875 C137.66977684 82.14363297 137.66977684 82.14363297 138.68385315 82.74447632 C140.04177184 83.54893803 141.39970758 84.35337096 142.75765991 85.15777588 C143.43575714 85.55945984 144.11385437 85.9611438 144.8125 86.375 C145.49035553 86.77652283 146.16821106 87.17804565 146.86660767 87.59173584 C156.9235822 93.55154629 166.93113971 99.58720597 176.91030884 105.6762085 C186.31936965 111.41346917 195.80305224 117.01308713 205.32357788 122.56304932 C214.86081754 128.12533403 224.3173995 133.80807222 233.73974609 139.5625 C242.60396148 144.9730281 251.52807824 150.27018437 260.5 155.5 C270.64671347 161.41461252 280.71654011 167.44111459 290.73974609 173.5625 C300.1987975 179.33610333 309.73151527 184.97207118 319.30563354 190.5524292 C329.76498725 196.65196184 340.13460314 202.88951771 350.46484375 209.20507812 C351.53992188 209.86185547 352.615 210.51863281 353.72265625 211.1953125 C355.17563605 212.08589338 356.62719036 212.97964873 358.0537262 213.91200066 C360.10514517 215.12701883 360.10514517 215.12701883 362.93540955 216.06738472 C366.65990094 217.65403088 369.14337534 219.11100488 372 222 C373.69547253 228.3120225 373.14922955 234.50958532 372.81616211 240.98730469 C372.75691539 243.0484874 372.70422876 245.10986679 372.65734005 247.17136765 C372.5445079 251.83761218 372.39961882 256.50158519 372.2374382 261.16636658 C371.96211106 269.57270724 371.85339231 277.97739376 371.76589966 286.3873291 C371.7493142 287.93601273 371.73269309 289.48469597 371.71603757 291.03337884 C371.69040404 293.42336972 371.66483164 295.81336102 371.63962044 298.2033564 C371.53921375 307.56262421 371.40150269 316.92131714 371.26332092 326.28009033 C371.23704327 328.07165368 371.21078211 329.86321727 371.18453711 331.6547811 C371.14445944 334.38772653 371.10432802 337.12067112 371.0640564 339.85361369 C370.92488147 349.29971711 370.78943079 358.74587313 370.65399467 368.19203076 C370.41168936 385.08313972 370.16613399 401.97419981 369.91870117 418.86523438 C369.68046113 435.12886993 369.44471238 451.39253913 369.21166992 467.65625 C368.91462732 488.38605758 368.61537467 509.11583213 368.31433322 529.84558202 C368.2328581 535.45957692 368.15184842 541.0735783 368.07126212 546.68758602 C368.01904595 550.32388699 367.96665192 553.96018538 367.91421696 557.5964832 C367.88859284 559.37544275 367.86303329 561.15440323 367.83753989 562.93336466 C367.70485353 572.18291876 367.56668456 581.43230866 367.40918827 590.68147659 C367.36959142 593.02357101 367.33007546 595.36566675 367.2906572 597.70776418 C367.26520451 599.2192544 367.2396139 600.73074231 367.21387985 602.24222776 C367.06975871 610.80464752 366.97590193 619.36328862 366.98340732 627.92723298 C366.98518248 632.06686291 366.96083063 636.20609102 366.93230045 640.34560919 C366.92581161 642.99252006 366.96086461 645.63657146 366.99800205 648.28316116 C366.99482995 658.81265548 366.99482995 658.81265548 364.26381207 662.07216644 C362.19152859 663.40830751 360.33093087 664.22456278 358 665 C356.50424438 665.86044922 356.50424438 665.86044922 354.97827148 666.73828125 C354.03540283 667.25777344 353.09253418 667.77726563 352.12109375 668.3125 C351.04730469 668.90611328 349.97351563 669.49972656 348.8671875 670.11132812 C347.16949219 671.0462207 347.16949219 671.0462207 345.4375 672 C343.00834376 673.34235876 340.58023989 674.68661369 338.15234375 676.03125 C337.54462128 676.36765503 336.9368988 676.70406006 336.3107605 677.05065918 C330.68773322 680.16635608 325.09111453 683.32750534 319.5 686.5 C305.5662152 694.39868467 291.55192979 702.15172705 277.54296875 709.91601562 C265.83919006 716.40412397 254.14187849 722.90131522 242.5 729.5 C228.56580863 737.39798112 214.55193945 745.15172169 200.54296875 752.91601562 C188.83919006 759.40412397 177.14187849 765.90131522 165.5 772.5 C153.85526862 779.10030182 142.15496437 785.59881893 130.44824219 792.08837891 C118.09661364 798.93581954 105.75091914 805.7939472 93.4140625 812.66796875 C91.81401367 813.55754272 91.81401367 813.55754272 90.18164062 814.46508789 C88.07075293 815.64930366 85.96771399 816.84762654 83.87304688 818.06030273 C79.23975668 820.73155905 74.75899082 823.18411203 69.7421875 825.0546875 C59.3869048 829.21478134 54.64352865 835.1544718 50.32055664 845.22753906 C47.69476405 851.63796267 45.32413389 858.14162104 42.96923828 864.65527344 C39.92465304 873.016322 36.49886746 881.22572031 33.12786865 889.45901489 C31.1005082 894.42533595 29.1010067 899.40286387 27.09765625 904.37890625 C20.80870668 919.97691675 14.45673617 935.54929879 8.09423828 951.11743164 C3.66267333 961.96716068 -0.73980888 972.8266929 -5.06640625 983.71875 C-6.23671993 986.65370654 -7.40769817 989.5883972 -8.57879639 992.52304077 C-9.66431908 995.25417762 -10.73779253 997.98984946 -11.81103516 1000.72583008 C-12.46066178 1002.35522031 -13.11085386 1003.98438525 -13.76171875 1005.61328125 C-14.19140709 1006.7261853 -14.19140709 1006.7261853 -14.629776 1007.86157227 C-15.3360184 1009.61061634 -16.15819244 1011.31201495 -17 1013 C-17.99 1013.33 -18.98 1013.66 -20 1014 C-20.25483658 1013.24357712 -20.50967316 1012.48715424 -20.77223206 1011.70780945 C-35.50707326 967.85074074 -35.50707326 967.85074074 -50.625 924.125 C-56.733788 906.74722606 -62.68278376 889.31664759 -68.59374237 871.87081146 C-69.30682099 869.76675685 -70.02055176 867.66292445 -70.73443604 865.55914307 C-72.07142611 861.61835504 -73.40515295 857.67647115 -74.73828125 853.734375 C-75.13963791 852.55098541 -75.54099457 851.36759583 -75.95451355 850.14834595 C-76.32699722 849.04461639 -76.6994809 847.94088684 -77.08325195 846.80371094 C-77.42820709 845.78917847 -77.77316223 844.774646 -78.12857056 843.72937012 C-78.86166711 841.43326703 -79.43134289 839.17820914 -79.95385742 836.82910156 C-80.70182491 833.85003255 -80.70182491 833.85003255 -83.18994141 832.81469727 C-84.11726074 832.54584717 -85.04458008 832.27699707 -86 832 C-88.34686873 830.68661636 -90.65743583 829.34983389 -92.9609375 827.96484375 C-93.96237289 827.36851891 -93.96237289 827.36851891 -94.98403931 826.76014709 C-97.11638527 825.48929098 -99.24571436 824.21347551 -101.375 822.9375 C-102.76673281 822.10709618 -104.15865836 821.27701532 -105.55078125 820.44726562 C-111.61350335 816.8311861 -117.66741962 813.20047657 -123.71899414 809.56578064 C-131.25636393 805.0389665 -138.81150711 800.5429028 -146.37524414 796.06030273 C-157.76815037 789.30745696 -169.14317887 782.52622872 -180.49243164 775.70019531 C-186.21005064 772.2645904 -191.93705207 768.84549667 -197.67578125 765.4453125 C-198.66977684 764.85636703 -198.66977684 764.85636703 -199.68385315 764.25552368 C-201.04177184 763.45106197 -202.39970758 762.64662904 -203.75765991 761.84222412 C-204.43575714 761.44054016 -205.11385437 761.0388562 -205.8125 760.625 C-206.49035553 760.22347717 -207.16821106 759.82195435 -207.86660767 759.40826416 C-217.9235822 753.44845371 -227.93113971 747.41279403 -237.91030884 741.3237915 C-247.31936965 735.58653083 -256.80305224 729.98691287 -266.32357788 724.43695068 C-275.86081754 718.87466597 -285.3173995 713.19192778 -294.73974609 707.4375 C-303.60396543 702.02696949 -312.5281737 696.72998422 -321.5 691.5 C-328.72934235 687.28528687 -335.94623993 683.05436174 -343.1015625 678.71484375 C-343.68425903 678.3630304 -344.26695557 678.01121704 -344.86730957 677.64874268 C-347.78966259 675.87897963 -350.68910522 674.08284677 -353.55957031 672.22998047 C-360.59284395 667.74090711 -367.25461087 664.54043594 -375.25439453 662.10229492 C-381.37283488 659.39152031 -387.42125998 655.80190942 -391 650 C-393.06061872 643.2484575 -392.12284938 635.7990557 -391.80053711 628.85058594 C-391.74266395 626.61524981 -391.69109036 624.37974356 -391.64513302 622.14413071 C-391.53558049 617.16195383 -391.393966 612.18194303 -391.23340988 607.20115662 C-390.96221481 598.54856212 -390.85610106 589.89597243 -390.76687622 581.23986816 C-390.75024291 579.67369766 -390.73355939 578.10752769 -390.71682721 576.54135823 C-390.69111249 574.13240391 -390.66541189 571.72344959 -390.6400217 569.31449182 C-390.53934065 559.93068175 -390.40179888 550.54743912 -390.26332092 541.16412354 C-390.23705125 539.37385979 -390.21079132 537.58359589 -390.18454093 535.79333186 C-390.144468 533.06394843 -390.10433381 530.33456594 -390.06405616 527.60518552 C-389.92468666 518.15914819 -389.78933756 508.71305418 -389.65399467 499.26695845 C-389.41193553 482.38235459 -389.16633794 465.49780414 -388.91870117 448.61328125 C-388.68017274 432.34964969 -388.4444313 416.08598076 -388.21166992 399.82226562 C-387.91492863 379.08848403 -387.61562965 358.35474082 -387.31433322 337.62102492 C-387.21942687 331.08496823 -387.12540444 324.54889918 -387.03170967 318.01282501 C-386.91713143 310.02328801 -386.80086354 302.03377742 -386.68265242 294.04429331 C-386.622736 289.99263858 -386.56341877 285.94097818 -386.50608253 281.88928604 C-386.48464126 280.38298782 -386.46318945 278.87668976 -386.44172668 277.37039185 C-386.43134139 276.63378518 -386.42095609 275.89717852 -386.41025608 275.13825044 C-386.35802388 271.5206931 -386.29914544 267.90345687 -386.22604859 264.28625727 C-386.19751525 262.8548043 -386.16912348 261.4233485 -386.14087105 259.99188995 C-386.12671536 259.27900744 -386.11255967 258.56612493 -386.09797502 257.83163992 C-386.00938246 252.89902888 -385.99779926 247.96983533 -386.01688521 243.03652151 C-386.02492448 239.43055355 -386.00137314 235.82514325 -385.97324591 232.21929595 C-385.96728097 230.48189099 -385.97532846 228.74437509 -385.99815954 227.00710991 C-386.16820722 213.431153 -386.16820722 213.431153 -383.25240624 209.85904932 C-381.17963232 208.54374577 -379.33023558 207.74237849 -377 207 C-375.62654419 206.20070068 -375.62654419 206.20070068 -374.2253418 205.38525391 C-372.97491089 204.68795166 -372.97491089 204.68795166 -371.69921875 203.9765625 C-370.73628906 203.43837891 -369.77335937 202.90019531 -368.78125 202.34570312 C-367.7603125 201.77787109 -366.739375 201.21003906 -365.6875 200.625 C-364.05748047 199.71524414 -364.05748047 199.71524414 -362.39453125 198.78710938 C-353.30035636 193.71455759 -344.19565657 188.66085488 -335.09057617 183.60791016 C-326.52107704 178.85069771 -317.96713961 174.06622415 -309.41845703 169.27172852 C-301.74883614 164.97275189 -294.06412756 160.70147074 -286.375 156.4375 C-278.06297651 151.82707239 -269.768729 147.18763022 -261.5 142.5 C-247.56587913 134.60189686 -233.55193778 126.84827738 -219.54296875 119.08398438 C-207.83919006 112.59587603 -196.14187849 106.09868478 -184.5 99.5 C-170.56580863 91.60201888 -156.55193945 83.84827831 -142.54296875 76.08398438 C-130.83919006 69.59587603 -119.14187849 63.09868478 -107.5 56.5 C-95.85526862 49.89969818 -84.15496437 43.40118107 -72.44824219 36.91162109 C-57.80797881 28.79541731 -43.17385799 20.66814735 -28.5625 12.5 C-27.57491699 11.94884521 -26.58733398 11.39769043 -25.56982422 10.82983398 C-24.61994629 10.29817627 -23.67006836 9.76651855 -22.69140625 9.21875 C-21.76344238 8.70183594 -20.83547852 8.18492187 -19.87939453 7.65234375 C-17.82671448 6.47441102 -15.79858885 5.25325091 -13.78857422 4.00390625 C-12.73299316 3.35292969 -11.67741211 2.70195312 -10.58984375 2.03125 C-9.16273071 1.12729492 -9.16273071 1.12729492 -7.70678711 0.20507812 C-4.48831988 -1.22780311 -3.28773744 -1.15132991 0 0 Z " fill="#000000" transform="translate(629,159)"/>
<path d="M0 0 C2.85087267 1.33424157 5.59338557 2.7790501 8.34277344 4.31201172 C9.98330688 5.22454712 9.98330688 5.22454712 11.65698242 6.15551758 C12.83358803 6.81428895 14.01009941 7.47322864 15.18652344 8.13232422 C16.41049733 8.81546625 17.63453784 9.49848894 18.85864258 10.18139648 C28.54685078 15.592882 38.19115904 21.07974538 47.81347656 26.60742188 C53.49710204 29.87135296 59.18490497 33.12797966 64.87402344 36.38232422 C65.47762695 36.72766205 66.08123047 37.07299988 66.703125 37.42880249 C74.52454057 41.90184544 82.36923474 46.3284509 90.25610352 50.68505859 C99.45677839 55.77501888 108.56500826 61.02732102 117.68652344 66.25732422 C122.41471637 68.96736098 127.14368095 71.67604113 131.87402344 74.38232422 C132.77820511 74.89965118 132.77820511 74.89965118 133.70065308 75.4274292 C141.52289476 79.90092527 149.36841018 84.32799542 157.25610352 88.68505859 C166.45677839 93.77501888 175.56500826 99.02732102 184.68652344 104.25732422 C189.41471643 106.96736102 194.1437282 109.67595848 198.87402344 112.38232422 C199.47149384 112.72421783 200.06896423 113.06611145 200.68453979 113.41836548 C208.8480258 118.08783011 217.03255827 122.7162285 225.27124023 127.25195312 C228.78564797 129.18802883 232.26213662 131.16574306 235.68652344 133.25732422 C234.33025098 137.3261416 232.50117168 137.80760696 228.80761719 139.91748047 C228.20891312 140.2633168 227.61020905 140.60915314 226.99336243 140.96546936 C225.70910549 141.70621591 224.42253208 142.44295792 223.13391113 143.17608643 C219.7700751 145.09029607 216.42295689 147.03339075 213.07324219 148.97216797 C212.41740143 149.35062866 211.76156067 149.72908936 211.08584595 150.11901855 C206.47697576 152.78286163 201.92652287 155.52188063 197.43652344 158.38232422 C186.65574643 165.22877136 175.64945308 171.70841625 164.68652344 178.25732422 C154.59375165 184.28944057 144.53835466 190.38163102 134.4909668 196.48895264 C120.62322359 204.91686544 106.70804197 213.26493332 92.78027344 221.59326172 C83.87958675 226.92142508 75.01390886 232.30669108 66.14901733 237.69412231 C55.35189503 244.25497967 44.52848085 250.77083513 33.68652344 257.25732422 C20.98023599 264.86022598 8.3077278 272.51388 -4.31347656 280.25732422 C-12.251687 276.04297029 -19.93329403 271.50354853 -27.56347656 266.75732422 C-29.86999471 265.32898953 -32.17775707 263.90266911 -34.48535156 262.47607422 C-35.35075562 261.94046875 -35.35075562 261.94046875 -36.23364258 261.39404297 C-41.74271917 257.98614233 -47.2757193 254.61834037 -52.81347656 251.25732422 C-60.89419036 246.34910606 -68.95327769 241.40697717 -77.00097656 236.44482422 C-86.78152531 230.41469493 -96.59229581 224.43683691 -106.41952515 218.48324585 C-114.74727971 213.43688624 -123.04389772 208.34345377 -131.31396484 203.203125 C-138.51378852 198.73545727 -145.75392585 194.33527598 -153.00097656 189.94482422 C-163.31852643 183.69414328 -173.60643542 177.39802254 -183.87475586 171.06665039 C-190.84036169 166.7736406 -197.82089601 162.50623348 -204.81347656 158.25732422 C-206.66900334 157.12721116 -208.52447143 155.99700172 -210.37988281 154.86669922 C-214.14103454 152.57601994 -217.90712802 150.29378176 -221.67697144 148.01745605 C-224.11128398 146.54543229 -226.54184569 145.06729281 -228.97167969 143.58789062 C-230.15254604 142.87075088 -231.33499197 142.15620532 -232.51904297 141.44433594 C-234.16158723 140.45638496 -235.79823651 139.45865284 -237.43457031 138.46044922 C-238.37743896 137.8897168 -239.32030762 137.31898438 -240.29174805 136.73095703 C-241.29250366 136.00150879 -241.29250366 136.00150879 -242.31347656 135.25732422 C-242.31347656 134.59732422 -242.31347656 133.93732422 -242.31347656 133.25732422 C-241.70689209 132.93159424 -241.10030762 132.60586426 -240.4753418 132.27026367 C-228.30336143 125.72595499 -216.18595574 119.10100838 -204.17016602 112.27392578 C-196.78331984 108.07931272 -189.36763039 103.93900624 -181.93847656 99.81982422 C-173.17887833 94.96182668 -164.42655112 90.09144336 -155.68847656 85.19482422 C-154.66367187 84.62054688 -153.63886719 84.04626953 -152.58300781 83.45458984 C-149.4929622 81.72252771 -146.40316848 79.99001719 -143.31347656 78.25732422 C-130.45225661 71.04477813 -117.58358316 63.84664731 -104.68847656 56.69482422 C-96.37648104 52.08434742 -88.08216433 47.44502748 -79.81347656 42.75732422 C-70.414335 37.42874152 -60.97786808 32.16975527 -51.52954102 26.92895508 C-44.7571629 23.17180642 -37.98871988 19.40786068 -31.22998047 15.6262207 C-29.10717235 14.43866155 -26.98318126 13.25321408 -24.85791016 12.07006836 C-20.4700083 9.62118026 -16.10364578 7.15813119 -11.81738281 4.53466797 C-11.16874268 4.1427124 -10.52010254 3.75075684 -9.85180664 3.34692383 C-8.22039491 2.35293194 -6.60210877 1.3374785 -4.98535156 0.31982422 C-2.31347656 -0.74267578 -2.31347656 -0.74267578 0 0 Z " fill="#FEC200" transform="translate(622.3134765625,268.74267578125)"/>
<path d="M0 0 C0 36.96 0 73.92 0 112 C-8.91 116.95 -17.82 121.9 -27 127 C-35.6314424 131.8724687 -35.6314424 131.8724687 -44.2578125 136.75390625 C-50.32713222 140.18970532 -56.41272772 143.59613693 -62.5 147 C-70.51125116 151.48029314 -78.51222007 155.97799235 -86.5 160.5 C-95.53940309 165.61734803 -104.59814296 170.6993318 -113.6640625 175.76953125 C-120.61969795 179.66158037 -127.56385204 183.57333772 -134.5 187.5 C-143.53940309 192.61734803 -152.59814296 197.6993318 -161.6640625 202.76953125 C-168.61969795 206.66158037 -175.56385204 210.57333772 -182.5 214.5 C-191.53940309 219.61734803 -200.59814296 224.6993318 -209.6640625 229.76953125 C-217.56110321 234.18834683 -225.44150374 238.63593073 -233.31616211 243.09448242 C-241.61200675 247.78834373 -249.92423258 252.45279546 -258.25292969 257.08813477 C-262.70625847 259.57079847 -267.14569782 262.0615226 -271.51171875 264.6953125 C-272.15810303 265.08162842 -272.8044873 265.46794434 -273.47045898 265.8659668 C-275.09692534 266.84532759 -276.71310121 267.84172626 -278.328125 268.83984375 C-281.60071073 270.26083492 -282.61048483 269.99108807 -286 269 C-288.23645233 267.83976343 -290.35783353 266.65087568 -292.50390625 265.34375 C-293.13054672 264.96992187 -293.75718719 264.59609375 -294.40281677 264.2109375 C-296.46034275 262.98097557 -298.51138677 261.74062135 -300.5625 260.5 C-302.00811986 259.6328903 -303.4540883 258.76636152 -304.90039062 257.90039062 C-315.09957321 251.78486762 -325.26167143 245.6071841 -335.41625977 239.41796875 C-344.23823563 234.04513069 -353.11101238 228.7610898 -362 223.5 C-372.61130098 217.21953143 -383.18099227 210.877075 -393.70898438 204.45800781 C-403.09842559 198.73548064 -412.53738361 193.10060119 -422 187.5 C-432.61130098 181.21953143 -443.18099227 174.877075 -453.70898438 168.45800781 C-463.09842559 162.73548064 -472.53738361 157.10060119 -482 151.5 C-493.17162307 144.88789582 -504.29378267 138.20164529 -515.37573242 131.44042969 C-521.76349966 127.54804424 -528.17447896 123.69807444 -534.61328125 119.890625 C-535.33925507 119.46112549 -536.06522888 119.03162598 -536.8132019 118.58911133 C-540.34985347 116.49792019 -543.88897752 114.41106814 -547.43164062 112.33007812 C-548.72140082 111.56908948 -550.01111654 110.80802546 -551.30078125 110.046875 C-552.42653564 109.38526367 -553.55229004 108.72365234 -554.7121582 108.04199219 C-555.797146 107.36813477 -556.88213379 106.69427734 -558 106 C-558.90307325 105.52631532 -558.90307325 105.52631532 -559.82439041 105.04306126 C-562.6220053 103.40406546 -564.63517306 102.16385261 -565.63284588 98.98112679 C-565.86330843 96.44100317 -565.86610438 93.98603052 -565.79467773 91.4362793 C-565.79569992 90.47969925 -565.79672211 89.5231192 -565.79777527 88.53755188 C-565.79290598 85.38196885 -565.73849466 82.2292949 -565.68359375 79.07421875 C-565.67053525 76.88419678 -565.66057227 74.69415435 -565.65357971 72.50410461 C-565.62687444 66.74469371 -565.55812882 60.98652197 -565.48065186 55.2276001 C-565.40899705 49.34916955 -565.37706331 43.47053842 -565.34179688 37.59179688 C-565.26676186 26.06065399 -565.14731639 14.5304301 -565 3 C-561.23283763 4.46971074 -557.80946736 6.1502078 -554.30078125 8.16796875 C-553.18727295 8.80629639 -552.07376465 9.44462402 -550.92651367 10.10229492 C-549.72180679 10.79730147 -548.51713651 11.49237148 -547.3125 12.1875 C-546.0578559 12.90823293 -544.80305197 13.6286877 -543.5480957 14.34887695 C-534.17038581 19.73432917 -524.80897968 25.14826734 -515.44702148 30.56103516 C-508.44644739 34.60382275 -501.42010117 38.59789676 -494.375 42.5625 C-485.64603747 47.4761941 -476.98171789 52.49231042 -468.33813477 57.55444336 C-460.52323331 62.12559003 -452.6758878 66.63801221 -444.8125 71.125 C-444.21841339 71.46405365 -443.62432678 71.8031073 -443.01223755 72.1524353 C-438.04461404 74.9870029 -433.07517729 77.81838446 -428.10498047 80.6484375 C-417.05760565 86.93955321 -406.05279551 93.29705634 -395.08105469 99.71923828 C-388.254153 103.70689402 -381.39121574 107.62468652 -374.5 111.5 C-366.73014311 115.86975851 -359.0044786 120.30706231 -351.3125 124.8125 C-339.03473004 132.00317489 -326.68318808 139.06086774 -314.32080078 146.10449219 C-311.15715761 147.91029469 -307.99762961 149.72304082 -304.83984375 151.5390625 C-303.4161145 152.35673096 -303.4161145 152.35673096 -301.96362305 153.19091797 C-300.22322422 154.19084482 -298.48372139 155.19233375 -296.74536133 156.19580078 C-295.21645942 157.07303698 -293.67845037 157.93465555 -292.13037109 158.77758789 C-290 160 -290 160 -288.07666016 161.43920898 C-285.9498862 162.88689334 -284.5566879 163.63855673 -282 164 C-277.54253226 162.53910193 -273.80516403 160.08639449 -269.875 157.5625 C-268.71588769 156.8508359 -267.55480115 156.14237813 -266.3918457 155.43701172 C-264.03041178 153.99930312 -261.67995846 152.54589641 -259.33740234 151.07763672 C-254.67109596 148.17271592 -249.93104899 145.40113751 -245.1875 142.625 C-243.39002936 141.56090134 -241.59316943 140.4957705 -239.796875 139.4296875 C-233.18948077 135.51530002 -226.5640001 131.63191027 -219.9375 127.75 C-219.32956604 127.39379578 -218.72163208 127.03759155 -218.09527588 126.67059326 C-213.10220741 123.74504319 -208.10855679 120.82048744 -203.11486816 117.89599609 C-198.76380661 115.34779516 -194.41297039 112.79921011 -190.0625 110.25 C-189.45373016 109.89329224 -188.84496033 109.53658447 -188.21774292 109.16906738 C-180.46931917 104.62818227 -172.72895912 100.07395984 -165 95.5 C-156.65768069 90.56305663 -148.30115781 85.65067263 -139.9375 80.75 C-139.32929413 80.3936145 -138.72108826 80.037229 -138.0944519 79.67004395 C-133.10165907 76.74467534 -128.1082724 73.8203209 -123.11486816 70.89599609 C-118.76380661 68.34779516 -114.41297039 65.79921011 -110.0625 63.25 C-109.45373016 62.89329224 -108.84496033 62.53658447 -108.21774292 62.16906738 C-100.46931917 57.62818227 -92.72895912 53.07395984 -85 48.5 C-76.65767923 43.56305576 -68.30100977 38.65092695 -59.9375 33.75 C-59.33228516 33.39527618 -58.72707031 33.04055237 -58.10351562 32.67507935 C-51.77834192 28.96792512 -45.45175715 25.26320502 -39.12171936 21.56436157 C-36.53496862 20.05259146 -33.94886375 18.53971847 -31.36282349 17.0267334 C-30.14755077 16.31613702 -28.93196848 15.60606974 -27.71603394 14.89660645 C-19.99247686 10.3997591 -19.99247686 10.3997591 -12.375 5.72705078 C-11.78319946 5.35528214 -11.19139893 4.98351349 -10.58166504 4.60047913 C-8.93797525 3.56335959 -7.29986306 2.51741557 -5.66210938 1.47094727 C-3 0 -3 0 0 0 Z " fill="#FEC200" transform="translate(900,471)"/>
<path d="M0 0 C0.39808276 14.42910711 0.69621822 28.85735738 0.88080692 43.29083824 C0.96827917 49.99377924 1.08737214 56.6932994 1.2824707 63.39404297 C1.4676448 69.86534274 1.56891441 76.33309784 1.61291313 82.8068428 C1.64424935 85.27204857 1.70545456 87.73706667 1.79741096 90.20075607 C2.47107886 109.00310192 2.47107886 109.00310192 -1.64082336 113.98997307 C-5.64436909 117.30706993 -10.0488479 119.34899952 -14.8877182 121.16620922 C-18.04104995 122.41093847 -20.83855025 124.08148626 -23.7578125 125.80078125 C-25.87912792 126.97331095 -28.00153599 128.14386592 -30.125 129.3125 C-32.46913511 130.60868621 -34.81297129 131.90539319 -37.15625 133.203125 C-38.30738281 133.84056641 -39.45851563 134.47800781 -40.64453125 135.13476562 C-45.65247156 137.91857412 -50.64036085 140.73723532 -55.625 143.5625 C-63.57033782 148.06513412 -71.52906205 152.54283428 -79.5 157 C-87.51125116 161.48029314 -95.51222007 165.97799235 -103.5 170.5 C-112.53940309 175.61734803 -121.59814296 180.6993318 -130.6640625 185.76953125 C-137.61969795 189.66158037 -144.56385204 193.57333772 -151.5 197.5 C-160.53940309 202.61734803 -169.59814296 207.6993318 -178.6640625 212.76953125 C-185.61969795 216.66158037 -192.56385204 220.57333772 -199.5 224.5 C-207.48778086 229.02200817 -215.48884203 233.51953916 -223.5 238 C-230.63006352 241.98873099 -237.75735109 245.98215951 -244.87133789 249.99951172 C-246.77308844 251.07336933 -248.67590253 252.14534588 -250.57983398 253.21533203 C-255.38783624 255.92440732 -260.1601784 258.67955727 -264.89453125 261.515625 C-265.84682617 262.07942871 -266.79912109 262.64323242 -267.78027344 263.22412109 C-269.58744968 264.2964382 -271.38684582 265.38201733 -273.17675781 266.48291016 C-273.9859668 266.96034668 -274.79517578 267.4377832 -275.62890625 267.9296875 C-276.6818689 268.56753174 -276.6818689 268.56753174 -277.75610352 269.21826172 C-280.88400134 270.30797218 -282.81961353 269.85422873 -286 269 C-288.74365234 267.62744141 -288.74365234 267.62744141 -291.5859375 265.8515625 C-292.66488281 265.18576172 -293.74382812 264.51996094 -294.85546875 263.83398438 C-295.42700684 263.47522217 -295.99854492 263.11645996 -296.58740234 262.74682617 C-299.05225642 261.19998043 -301.53026363 259.67480085 -304.00787354 258.14849854 C-305.3217643 257.33907547 -306.63502711 256.5286323 -307.94769287 255.71722412 C-314.57773882 251.62474993 -321.27633236 247.65141859 -327.98516846 243.68988037 C-339.27418991 237.02302771 -350.5150251 230.2831247 -361.70898438 223.45800781 C-371.09842559 217.73548064 -380.53738361 212.10060119 -390 206.5 C-400.61130098 200.21953143 -411.18099227 193.877075 -421.70898438 187.45800781 C-431.09842559 181.73548064 -440.53738361 176.10060119 -450 170.5 C-460.61130098 164.21953143 -471.18099227 157.877075 -481.70898438 151.45800781 C-491.09842604 145.73548036 -500.53739492 140.10062138 -510 134.5 C-523.66241297 126.41353842 -537.25192343 118.21300159 -550.80224609 109.94018555 C-553.78534159 107.94979773 -553.78534159 107.94979773 -556.56314087 107.22033691 C-559.987551 105.90319469 -561.67613452 104.87562392 -564 102 C-565.94742986 94.88305305 -565.15652045 87.05395327 -564.9765625 79.7578125 C-564.95790414 77.54681598 -564.94367288 75.33577803 -564.9336853 73.12472534 C-564.89555859 67.31377389 -564.79737984 61.50533445 -564.68664551 55.69537354 C-564.58422511 49.76340724 -564.53865039 43.83103371 -564.48828125 37.8984375 C-564.38113185 26.26452311 -564.21053079 14.63247067 -564 3 C-561.62094832 4.26232746 -559.24264702 5.52603542 -556.86474609 6.79052734 C-556.19821518 7.14400742 -555.53168427 7.49748749 -554.84495544 7.86167908 C-549.01361198 10.96490081 -543.30754178 14.25740224 -537.625 17.625 C-529.12055262 22.62877792 -520.56068505 27.5163343 -511.9375 32.3125 C-504.82306224 36.27145374 -497.76373214 40.28094012 -490.81811523 44.52856445 C-484.80204974 48.17869569 -478.64819446 51.57871061 -472.5 55 C-465.19885799 59.06287079 -457.94796889 63.16787019 -450.8203125 67.52734375 C-444.80335431 71.17763172 -438.64893744 74.57829716 -432.5 78 C-425.19885799 82.06287079 -417.94796889 86.16787019 -410.8203125 90.52734375 C-404.80335431 94.17763172 -398.64893744 97.57829716 -392.5 101 C-385.19885799 105.06287079 -377.94796889 109.16787019 -370.8203125 113.52734375 C-364.80335431 117.17763172 -358.64893744 120.57829716 -352.5 124 C-345.19885799 128.06287079 -337.94796889 132.16787019 -330.8203125 136.52734375 C-323.7367848 140.82468389 -316.46717196 144.7958841 -309.22583008 148.8190918 C-301.97438233 152.85920778 -294.83948949 157.03893692 -287.79296875 161.42578125 C-285.3011879 162.83023955 -283.79231246 163.66498699 -281 164 C-278.70499014 163.12363742 -278.70499014 163.12363742 -276.37890625 161.6328125 C-274.99892456 160.8123645 -274.99892456 160.8123645 -273.59106445 159.9753418 C-272.59163818 159.364729 -271.59221191 158.75411621 -270.5625 158.125 C-268.38038121 156.82132518 -266.19808179 155.51795266 -264.015625 154.21484375 C-262.85597671 153.51700203 -261.69647342 152.81891932 -260.53710938 152.12060547 C-255.25983511 148.94851821 -249.93895214 145.8508861 -244.62231445 142.74542236 C-241.56380663 140.95757951 -238.5086229 139.1640741 -235.453125 137.37109375 C-230.46463936 134.44473862 -225.47495342 131.52044081 -220.484375 128.59765625 C-209.64584738 122.24930364 -198.8098104 115.89719242 -188 109.5 C-179.65768069 104.56305663 -171.30115781 99.65067263 -162.9375 94.75 C-162.32929413 94.3936145 -161.72108826 94.037229 -161.0944519 93.67004395 C-156.10165907 90.74467534 -151.1082724 87.8203209 -146.11486816 84.89599609 C-141.76380661 82.34779516 -137.41297039 79.79921011 -133.0625 77.25 C-132.45373016 76.89329224 -131.84496033 76.53658447 -131.21774292 76.16906738 C-123.46931917 71.62818227 -115.72895912 67.07395984 -108 62.5 C-99.65768069 57.56305663 -91.30115781 52.65067263 -82.9375 47.75 C-82.32929413 47.3936145 -81.72108826 47.037229 -81.0944519 46.67004395 C-76.10165907 43.74467534 -71.1082724 40.8203209 -66.11486816 37.89599609 C-46.60615837 26.47144523 -46.60615837 26.47144523 -27.125 15 C-26.24046143 14.47801025 -25.35592285 13.95602051 -24.44458008 13.41821289 C-20.41059733 11.03343631 -16.38640194 8.63472126 -12.3828125 6.19921875 C-11.32682861 5.55823242 -11.32682861 5.55823242 -10.24951172 4.90429688 C-8.95958442 4.11931547 -7.67196304 3.33052619 -6.38720703 2.53710938 C-2.22030692 0 -2.22030692 0 0 0 Z " fill="#FEC200" transform="translate(903,660)"/>
<path d="M0 0 C2.35473633 1.18896484 2.35473633 1.18896484 4.83203125 2.7109375 C6.25346436 3.57501221 6.25346436 3.57501221 7.70361328 4.45654297 C9.24251221 5.4061792 9.24251221 5.4061792 10.8125 6.375 C12.47189438 7.38529218 14.13131456 8.39554299 15.79162598 9.40432739 C16.97401784 10.12295578 18.15589061 10.84243885 19.33728027 11.56271362 C26.72790227 16.06497189 34.17847309 20.46608215 41.625 24.875 C44.22173017 26.41342888 46.81807486 27.95250599 49.4140625 29.4921875 C50.35944633 30.05286926 50.35944633 30.05286926 51.32392883 30.62487793 C56.34982077 33.60826384 61.36190916 36.61428012 66.37164307 39.62469482 C72.69197158 43.42035208 79.03291513 47.1809568 85.37524414 50.93969727 C96.76815037 57.69254304 108.14317887 64.47377128 119.49243164 71.29980469 C125.21005064 74.7354096 130.93705207 78.15450333 136.67578125 81.5546875 C137.66977684 82.14363297 137.66977684 82.14363297 138.68385315 82.74447632 C140.04177184 83.54893803 141.39970758 84.35337096 142.75765991 85.15777588 C143.43575714 85.55945984 144.11385437 85.9611438 144.8125 86.375 C145.49035553 86.77652283 146.16821106 87.17804565 146.86660767 87.59173584 C156.9235822 93.55154629 166.93113971 99.58720597 176.91030884 105.6762085 C186.31936965 111.41346917 195.80305224 117.01308713 205.32357788 122.56304932 C214.86081754 128.12533403 224.3173995 133.80807222 233.73974609 139.5625 C242.60396148 144.9730281 251.52807824 150.27018437 260.5 155.5 C270.64671347 161.41461252 280.71654011 167.44111459 290.73974609 173.5625 C300.1987975 179.33610333 309.73151527 184.97207118 319.30563354 190.5524292 C329.76498725 196.65196184 340.13460314 202.88951771 350.46484375 209.20507812 C351.53992188 209.86185547 352.615 210.51863281 353.72265625 211.1953125 C355.17563605 212.08589338 356.62719036 212.97964873 358.0537262 213.91200066 C360.10514517 215.12701883 360.10514517 215.12701883 362.93540955 216.06738472 C366.65990094 217.65403088 369.14337534 219.11100488 372 222 C373.69547253 228.3120225 373.14922955 234.50958532 372.81616211 240.98730469 C372.75691539 243.0484874 372.70422876 245.10986679 372.65734005 247.17136765 C372.5445079 251.83761218 372.39961882 256.50158519 372.2374382 261.16636658 C371.96211106 269.57270724 371.85339231 277.97739376 371.76589966 286.3873291 C371.7493142 287.93601273 371.73269309 289.48469597 371.71603757 291.03337884 C371.69040404 293.42336972 371.66483164 295.81336102 371.63962044 298.2033564 C371.53921375 307.56262421 371.40150269 316.92131714 371.26332092 326.28009033 C371.23704327 328.07165368 371.21078211 329.86321727 371.18453711 331.6547811 C371.14445944 334.38772653 371.10432802 337.12067112 371.0640564 339.85361369 C370.92488147 349.29971711 370.78943079 358.74587313 370.65399467 368.19203076 C370.41168936 385.08313972 370.16613399 401.97419981 369.91870117 418.86523438 C369.68046113 435.12886993 369.44471238 451.39253913 369.21166992 467.65625 C368.91462732 488.38605758 368.61537467 509.11583213 368.31433322 529.84558202 C368.2328581 535.45957692 368.15184842 541.0735783 368.07126212 546.68758602 C368.01904595 550.32388699 367.96665192 553.96018538 367.91421696 557.5964832 C367.88859284 559.37544275 367.86303329 561.15440323 367.83753989 562.93336466 C367.70485353 572.18291876 367.56668456 581.43230866 367.40918827 590.68147659 C367.36959142 593.02357101 367.33007546 595.36566675 367.2906572 597.70776418 C367.26520451 599.2192544 367.2396139 600.73074231 367.21387985 602.24222776 C367.06975871 610.80464752 366.97590193 619.36328862 366.98340732 627.92723298 C366.98518248 632.06686291 366.96083063 636.20609102 366.93230045 640.34560919 C366.92581161 642.99252006 366.96086461 645.63657146 366.99800205 648.28316116 C366.99482995 658.81265548 366.99482995 658.81265548 364.26381207 662.07216644 C362.19152859 663.40830751 360.33093087 664.22456278 358 665 C356.50424438 665.86044922 356.50424438 665.86044922 354.97827148 666.73828125 C354.03540283 667.25777344 353.09253418 667.77726563 352.12109375 668.3125 C351.04730469 668.90611328 349.97351563 669.49972656 348.8671875 670.11132812 C347.16949219 671.0462207 347.16949219 671.0462207 345.4375 672 C343.00834376 673.34235876 340.58023989 674.68661369 338.15234375 676.03125 C337.54462128 676.36765503 336.9368988 676.70406006 336.3107605 677.05065918 C330.68773322 680.16635608 325.09111453 683.32750534 319.5 686.5 C305.5662152 694.39868467 291.55192979 702.15172705 277.54296875 709.91601562 C265.83919006 716.40412397 254.14187849 722.90131522 242.5 729.5 C228.56580863 737.39798112 214.55193945 745.15172169 200.54296875 752.91601562 C188.83919006 759.40412397 177.14187849 765.90131522 165.5 772.5 C153.85526862 779.10030182 142.15496437 785.59881893 130.44824219 792.08837891 C118.09661364 798.93581954 105.75091914 805.7939472 93.4140625 812.66796875 C91.81401367 813.55754272 91.81401367 813.55754272 90.18164062 814.46508789 C88.07075293 815.64930366 85.96771399 816.84762654 83.87304688 818.06030273 C79.23975668 820.73155905 74.75899082 823.18411203 69.7421875 825.0546875 C59.3869048 829.21478134 54.64352865 835.1544718 50.32055664 845.22753906 C47.69476405 851.63796267 45.32413389 858.14162104 42.96923828 864.65527344 C39.92465304 873.016322 36.49886746 881.22572031 33.12786865 889.45901489 C31.1005082 894.42533595 29.1010067 899.40286387 27.09765625 904.37890625 C20.80870668 919.97691675 14.45673617 935.54929879 8.09423828 951.11743164 C3.66267333 961.96716068 -0.73980888 972.8266929 -5.06640625 983.71875 C-6.23671993 986.65370654 -7.40769817 989.5883972 -8.57879639 992.52304077 C-9.66431908 995.25417762 -10.73779253 997.98984946 -11.81103516 1000.72583008 C-12.46066178 1002.35522031 -13.11085386 1003.98438525 -13.76171875 1005.61328125 C-14.19140709 1006.7261853 -14.19140709 1006.7261853 -14.629776 1007.86157227 C-15.3360184 1009.61061634 -16.15819244 1011.31201495 -17 1013 C-17.99 1013.33 -18.98 1013.66 -20 1014 C-20.25483658 1013.24357712 -20.50967316 1012.48715424 -20.77223206 1011.70780945 C-35.50707326 967.85074074 -35.50707326 967.85074074 -50.625 924.125 C-56.733788 906.74722606 -62.68278376 889.31664759 -68.59374237 871.87081146 C-69.30682099 869.76675685 -70.02055176 867.66292445 -70.73443604 865.55914307 C-72.07142611 861.61835504 -73.40515295 857.67647115 -74.73828125 853.734375 C-75.13963791 852.55098541 -75.54099457 851.36759583 -75.95451355 850.14834595 C-76.32699722 849.04461639 -76.6994809 847.94088684 -77.08325195 846.80371094 C-77.42820709 845.78917847 -77.77316223 844.774646 -78.12857056 843.72937012 C-78.86166711 841.43326703 -79.43134289 839.17820914 -79.95385742 836.82910156 C-80.70182491 833.85003255 -80.70182491 833.85003255 -83.18994141 832.81469727 C-84.11726074 832.54584717 -85.04458008 832.27699707 -86 832 C-88.34686873 830.68661636 -90.65743583 829.34983389 -92.9609375 827.96484375 C-93.96237289 827.36851891 -93.96237289 827.36851891 -94.98403931 826.76014709 C-97.11638527 825.48929098 -99.24571436 824.21347551 -101.375 822.9375 C-102.76673281 822.10709618 -104.15865836 821.27701532 -105.55078125 820.44726562 C-111.61350335 816.8311861 -117.66741962 813.20047657 -123.71899414 809.56578064 C-131.25636393 805.0389665 -138.81150711 800.5429028 -146.37524414 796.06030273 C-157.76815037 789.30745696 -169.14317887 782.52622872 -180.49243164 775.70019531 C-186.21005064 772.2645904 -191.93705207 768.84549667 -197.67578125 765.4453125 C-198.66977684 764.85636703 -198.66977684 764.85636703 -199.68385315 764.25552368 C-201.04177184 763.45106197 -202.39970758 762.64662904 -203.75765991 761.84222412 C-204.43575714 761.44054016 -205.11385437 761.0388562 -205.8125 760.625 C-206.49035553 760.22347717 -207.16821106 759.82195435 -207.86660767 759.40826416 C-217.9235822 753.44845371 -227.93113971 747.41279403 -237.91030884 741.3237915 C-247.31936965 735.58653083 -256.80305224 729.98691287 -266.32357788 724.43695068 C-275.86081754 718.87466597 -285.3173995 713.19192778 -294.73974609 707.4375 C-303.60396543 702.02696949 -312.5281737 696.72998422 -321.5 691.5 C-328.72934235 687.28528687 -335.94623993 683.05436174 -343.1015625 678.71484375 C-343.68425903 678.3630304 -344.26695557 678.01121704 -344.86730957 677.64874268 C-347.78966259 675.87897963 -350.68910522 674.08284677 -353.55957031 672.22998047 C-360.59284395 667.74090711 -367.25461087 664.54043594 -375.25439453 662.10229492 C-381.37283488 659.39152031 -387.42125998 655.80190942 -391 650 C-393.06061872 643.2484575 -392.12284938 635.7990557 -391.80053711 628.85058594 C-391.74266395 626.61524981 -391.69109036 624.37974356 -391.64513302 622.14413071 C-391.53558049 617.16195383 -391.393966 612.18194303 -391.23340988 607.20115662 C-390.96221481 598.54856212 -390.85610106 589.89597243 -390.76687622 581.23986816 C-390.75024291 579.67369766 -390.73355939 578.10752769 -390.71682721 576.54135823 C-390.69111249 574.13240391 -390.66541189 571.72344959 -390.6400217 569.31449182 C-390.53934065 559.93068175 -390.40179888 550.54743912 -390.26332092 541.16412354 C-390.23705125 539.37385979 -390.21079132 537.58359589 -390.18454093 535.79333186 C-390.144468 533.06394843 -390.10433381 530.33456594 -390.06405616 527.60518552 C-389.92468666 518.15914819 -389.78933756 508.71305418 -389.65399467 499.26695845 C-389.41193553 482.38235459 -389.16633794 465.49780414 -388.91870117 448.61328125 C-388.68017274 432.34964969 -388.4444313 416.08598076 -388.21166992 399.82226562 C-387.91492863 379.08848403 -387.61562965 358.35474082 -387.31433322 337.62102492 C-387.21942687 331.08496823 -387.12540444 324.54889918 -387.03170967 318.01282501 C-386.91713143 310.02328801 -386.80086354 302.03377742 -386.68265242 294.04429331 C-386.622736 289.99263858 -386.56341877 285.94097818 -386.50608253 281.88928604 C-386.48464126 280.38298782 -386.46318945 278.87668976 -386.44172668 277.37039185 C-386.43134139 276.63378518 -386.42095609 275.89717852 -386.41025608 275.13825044 C-386.35802388 271.5206931 -386.29914544 267.90345687 -386.22604859 264.28625727 C-386.19751525 262.8548043 -386.16912348 261.4233485 -386.14087105 259.99188995 C-386.12671536 259.27900744 -386.11255967 258.56612493 -386.09797502 257.83163992 C-386.00938246 252.89902888 -385.99779926 247.96983533 -386.01688521 243.03652151 C-386.02492448 239.43055355 -386.00137314 235.82514325 -385.97324591 232.21929595 C-385.96728097 230.48189099 -385.97532846 228.74437509 -385.99815954 227.00710991 C-386.16820722 213.431153 -386.16820722 213.431153 -383.25240624 209.85904932 C-381.17963232 208.54374577 -379.33023558 207.74237849 -377 207 C-375.62654419 206.20070068 -375.62654419 206.20070068 -374.2253418 205.38525391 C-372.97491089 204.68795166 -372.97491089 204.68795166 -371.69921875 203.9765625 C-370.73628906 203.43837891 -369.77335937 202.90019531 -368.78125 202.34570312 C-367.7603125 201.77787109 -366.739375 201.21003906 -365.6875 200.625 C-364.05748047 199.71524414 -364.05748047 199.71524414 -362.39453125 198.78710938 C-353.30035636 193.71455759 -344.19565657 188.66085488 -335.09057617 183.60791016 C-326.52107704 178.85069771 -317.96713961 174.06622415 -309.41845703 169.27172852 C-301.74883614 164.97275189 -294.06412756 160.70147074 -286.375 156.4375 C-278.06297651 151.82707239 -269.768729 147.18763022 -261.5 142.5 C-247.56587913 134.60189686 -233.55193778 126.84827738 -219.54296875 119.08398438 C-207.83919006 112.59587603 -196.14187849 106.09868478 -184.5 99.5 C-170.56580863 91.60201888 -156.55193945 83.84827831 -142.54296875 76.08398438 C-130.83919006 69.59587603 -119.14187849 63.09868478 -107.5 56.5 C-95.85526862 49.89969818 -84.15496437 43.40118107 -72.44824219 36.91162109 C-57.80797881 28.79541731 -43.17385799 20.66814735 -28.5625 12.5 C-27.57491699 11.94884521 -26.58733398 11.39769043 -25.56982422 10.82983398 C-24.61994629 10.29817627 -23.67006836 9.76651855 -22.69140625 9.21875 C-21.76344238 8.70183594 -20.83547852 8.18492187 -19.87939453 7.65234375 C-17.82671448 6.47441102 -15.79858885 5.25325091 -13.78857422 4.00390625 C-12.73299316 3.35292969 -11.67741211 2.70195312 -10.58984375 2.03125 C-9.16273071 1.12729492 -9.16273071 1.12729492 -7.70678711 0.20507812 C-4.48831988 -1.22780311 -3.28773744 -1.15132991 0 0 Z M-10.390625 21.82421875 C-11.48052734 22.43394531 -12.57042969 23.04367188 -13.69335938 23.671875 C-14.87897899 24.34362163 -16.06452396 25.01550003 -17.25 25.6875 C-18.47690733 26.37684737 -19.70412475 27.0656431 -20.93164062 27.75390625 C-24.6257371 29.82775635 -28.31321581 31.91318727 -32 34 C-33.9843496 35.1211387 -35.96872263 36.24223594 -37.953125 37.36328125 C-40.73639053 38.93665347 -43.51916984 40.51086325 -46.30078125 42.0871582 C-59.30409878 49.45071155 -72.38687136 56.67204565 -85.45703125 63.91601562 C-97.16080994 70.40412397 -108.85812151 76.90131522 -120.5 83.5 C-132.13446392 90.09448216 -143.82451318 96.58711504 -155.52099609 103.07080078 C-161.37021317 106.31434558 -167.21620584 109.56369073 -173.0625 112.8125 C-185.42249607 119.68023664 -185.42249607 119.68023664 -190.81640625 122.671875 C-207.37492212 131.85751323 -223.89942922 141.10387889 -240.375 150.4375 C-252.05259855 157.05006746 -263.78389206 163.56459762 -275.52099609 170.07080078 C-281.37021317 173.31434558 -287.21620584 176.56369073 -293.0625 179.8125 C-305.42249607 186.68023664 -305.42249607 186.68023664 -310.81640625 189.671875 C-315.21306788 192.11076308 -319.60744876 194.5537167 -324 197 C-324.95084473 197.52948242 -325.90168945 198.05896484 -326.88134766 198.60449219 C-328.41927979 199.46155762 -328.41927979 199.46155762 -329.98828125 200.3359375 C-331.04450684 200.9230249 -332.10073242 201.5101123 -333.18896484 202.11499023 C-335.34754604 203.32600847 -337.49777305 204.55204441 -339.63916016 205.79321289 C-345.38941417 209.10950867 -350.9639593 211.97892883 -357.25415039 214.12915039 C-361.47907973 216.23842204 -365.06978798 218.20908914 -368 222 C-369.15979966 226.25477794 -369.04572995 230.38547105 -368.96875 234.7734375 C-368.98406916 236.78066559 -368.99943233 238.78789366 -369.01613617 240.7951107 C-369.02764705 242.98444519 -369.02038549 245.17309672 -369.00927734 247.36242676 C-368.99025055 252.16563783 -369.05338944 256.96601821 -369.12890625 261.76855469 C-369.2361948 268.81955462 -369.32534728 275.87037442 -369.39257812 282.921875 C-369.40128685 283.83170513 -369.40999557 284.74153526 -369.4189682 285.678936 C-369.43678256 287.54419679 -369.45456638 289.40945788 -369.47232056 291.27471924 C-369.55744125 300.0399926 -369.65400374 308.80515272 -369.75 317.5703125 C-369.76035782 318.52352638 -369.77071564 319.47674026 -369.78138733 320.45883942 C-369.94381721 335.30792208 -370.17656935 350.15345917 -370.5 365 C-371.00182786 388.16494245 -371.25036506 411.33124507 -371.5 434.5 C-371.74963526 457.66878487 -372.00004298 480.83499802 -372.5 504 C-372.9896739 526.78964221 -373.26692141 549.58093569 -373.52865601 572.37414551 C-373.56202388 575.27116335 -373.5959011 578.16817485 -373.62988281 581.06518555 C-373.64071679 581.99908363 -373.65155077 582.93298172 -373.66271305 583.89517975 C-373.68432068 585.74987485 -373.70631107 587.60456554 -373.72869778 589.4592514 C-373.78098823 593.90300138 -373.82320676 598.34638029 -373.84230042 602.79040527 C-373.87874781 610.01296218 -373.95436418 617.17642567 -374.50366211 624.3828125 C-375.49888874 633.35837435 -375.49888874 633.35837435 -372.91574097 641.70339966 C-369.39940951 645.43642855 -365.06273493 647.3442292 -360.4375 649.375 C-359.07555675 650.05663521 -357.71818883 650.74748652 -356.36547852 651.44726562 C-353.74052674 652.79265077 -351.10154023 654.09265996 -348.43359375 655.35058594 C-344.59038786 657.1967676 -341.04832878 659.23893341 -337.4375 661.5 C-335.76880859 662.50546875 -335.76880859 662.50546875 -334.06640625 663.53125 C-330.67425923 665.5869889 -327.28852142 667.65319696 -323.90234375 669.71875 C-321.56030141 671.14649986 -319.21781295 672.57351501 -316.875 674 C-316.27863739 674.36314301 -315.68227478 674.72628601 -315.06784058 675.10043335 C-304.55234451 681.49817266 -293.95658152 687.75091227 -283.32714844 693.95703125 C-273.16828028 699.88939126 -263.07200076 705.92145919 -253 712 C-250.64677934 713.41824396 -248.29259974 714.83487866 -245.9375 716.25 C-245.35846924 716.59804688 -244.77943848 716.94609375 -244.18286133 717.3046875 C-240.14936579 719.72404463 -236.10418285 722.12314416 -232.0546875 724.515625 C-229.80721665 725.84362305 -227.55982391 727.1717533 -225.3125 728.5 C-224.44765488 729.01114853 -224.44765488 729.01114853 -223.56533813 729.53262329 C-214.71135138 734.76876634 -205.90630071 740.08051561 -197.125 745.4375 C-186.26023016 752.06459201 -175.31434406 758.54202571 -164.32421875 764.95874023 C-155.03559166 770.38291948 -145.79662776 775.88554759 -136.58618164 781.44140625 C-126.34740451 787.61192954 -116.08260482 793.73676271 -105.7953186 799.82598877 C-94.76020597 806.35979178 -83.75957368 812.94474996 -72.8125 819.625 C-61.95658195 826.24785633 -51.0223842 832.72636357 -40.02856445 839.11767578 C-38.90667725 839.77106934 -37.78479004 840.42446289 -36.62890625 841.09765625 C-35.53723145 841.73074707 -34.44555664 842.36383789 -33.32080078 843.01611328 C-30.98923967 844.4090162 -28.71107076 845.82272936 -26.44091797 847.30810547 C-25.85809555 847.68438583 -25.27527313 848.0606662 -24.67478943 848.448349 C-23.06075436 849.49632028 -21.45761 850.56101011 -19.85522461 851.62670898 C-17.138242 853.21446932 -17.138242 853.21446932 -14.4128418 852.8659668 C-11.90549176 851.96608107 -9.7344976 850.92244599 -7.4296875 849.5859375 C-6.54748535 849.08006104 -5.6652832 848.57418457 -4.75634766 848.05297852 C-3.80550293 847.49924561 -2.8546582 846.9455127 -1.875 846.375 C0.20252331 845.18254486 2.28067413 843.99118246 4.359375 842.80078125 C5.44669922 842.1763916 6.53402344 841.55200195 7.65429688 840.90869141 C13.20077393 837.74447967 18.78820986 834.65479843 24.375 831.5625 C33.09457828 826.72821396 41.80426781 821.8770517 50.5 817 C59.19573652 812.12294587 67.90589319 807.27264105 76.625 802.4375 C84.93702349 797.82707239 93.231271 793.18763022 101.5 788.5 C115.43412087 780.60189686 129.44806222 772.84827738 143.45703125 765.08398438 C155.16080994 758.59587603 166.85812151 752.09868478 178.5 745.5 C192.43419137 737.60201888 206.44806055 729.84827831 220.45703125 722.08398438 C232.16080994 715.59587603 243.85812151 709.09868478 255.5 702.5 C267.14473138 695.89969818 278.84503563 689.40118107 290.55175781 682.91162109 C305.37961849 674.69141796 320.20061811 666.45887948 335 658.1875 C336.59448975 657.29792603 336.59448975 657.29792603 338.22119141 656.39038086 C339.68951416 655.56872437 339.68951416 655.56872437 341.1875 654.73046875 C342.04730469 654.24989014 342.90710938 653.76931152 343.79296875 653.27416992 C345.56859672 652.24905904 347.29405196 651.13729869 349 650 C349.50592025 647.20486807 349.50592025 647.20486807 349.49414062 643.85693359 C349.527052 642.54874664 349.55996338 641.24055969 349.59387207 639.89273071 C349.61508866 638.43630576 349.63586666 636.97987436 349.65625 635.5234375 C349.68803086 633.99707848 349.72089264 632.47074163 349.75476074 630.94442749 C349.85909306 625.96323152 349.93084274 620.98178874 350 616 C350.02495852 614.3195378 350.05002341 612.63907718 350.07519531 610.95861816 C350.24354341 599.45629443 350.3617657 587.95362248 350.47232056 576.45062256 C350.55774639 567.73002944 350.65399436 559.00954443 350.75 550.2890625 C350.76035782 549.34182564 350.77071564 548.39458878 350.78138733 547.41864777 C350.9444761 532.61043473 351.17791136 517.80569783 351.5 503 C351.83676775 487.44849932 352.07494949 471.89780082 352.25 456.34375 C352.26047867 455.41430573 352.27095734 454.48486145 352.28175354 453.5272522 C352.38655795 444.17902018 352.48717494 434.83075235 352.58091831 425.4824028 C352.78503432 405.25118695 353.08257566 385.02494677 353.49609375 364.796875 C354.03591846 338.29667045 354.30834116 311.79638661 354.53222656 285.29187012 C354.58394145 279.24143724 354.63881581 273.19103292 354.69335938 267.140625 C354.79852184 255.4271081 354.90042331 243.71356563 355 232 C354.20660217 231.53542389 353.41320435 231.07084778 352.59576416 230.5921936 C323.33218723 213.45429542 323.33218723 213.45429542 309.75 205.375 C308.40560514 204.57616147 307.06120392 203.77733365 305.71679688 202.97851562 C296.63065421 197.57710972 287.56251993 192.14610848 278.50415039 186.69824219 C272.78773897 183.26317403 267.0618193 179.84482796 261.32421875 176.4453125 C260.33022316 175.85636703 260.33022316 175.85636703 259.31614685 175.25552368 C257.95822816 174.45106197 256.60029242 173.64662904 255.24234009 172.84222412 C254.56424286 172.44054016 253.88614563 172.0388562 253.1875 171.625 C252.50964447 171.22347717 251.83178894 170.82195435 251.13339233 170.40826416 C241.0764178 164.44845371 231.06886029 158.41279403 221.08969116 152.3237915 C211.68063035 146.58653083 202.19694776 140.98691287 192.67642212 135.43695068 C183.13918246 129.87466597 173.6826005 124.19192778 164.26025391 118.4375 C155.39603852 113.0269719 146.47192176 107.72981563 137.5 102.5 C127.35328653 96.58538748 117.28345989 90.55888541 107.26025391 84.4375 C98.39603852 79.0269719 89.47192176 73.72981563 80.5 68.5 C70.35903331 62.58873734 60.29392564 56.56713058 50.27737427 50.4475708 C39.87904209 44.0979427 29.39176 37.9093461 18.85351562 31.79492188 C12.52418065 28.11154533 6.31443692 24.3271808 0.22680664 20.25439453 C-4.04593166 17.84749514 -6.4438346 19.60177018 -10.390625 21.82421875 Z " fill="#FDFDFD" transform="translate(629,159)"/>
<path d="M0 0 C0 36.96 0 73.92 0 112 C-8.91 116.95 -17.82 121.9 -27 127 C-35.6314424 131.8724687 -35.6314424 131.8724687 -44.2578125 136.75390625 C-50.32713222 140.18970532 -56.41272772 143.59613693 -62.5 147 C-70.51125116 151.48029314 -78.51222007 155.97799235 -86.5 160.5 C-95.53940309 165.61734803 -104.59814296 170.6993318 -113.6640625 175.76953125 C-120.61969795 179.66158037 -127.56385204 183.57333772 -134.5 187.5 C-143.53940309 192.61734803 -152.59814296 197.6993318 -161.6640625 202.76953125 C-168.61969795 206.66158037 -175.56385204 210.57333772 -182.5 214.5 C-191.53940309 219.61734803 -200.59814296 224.6993318 -209.6640625 229.76953125 C-217.56110321 234.18834683 -225.44150374 238.63593073 -233.31616211 243.09448242 C-241.61200675 247.78834373 -249.92423258 252.45279546 -258.25292969 257.08813477 C-262.70625847 259.57079847 -267.14569782 262.0615226 -271.51171875 264.6953125 C-272.15810303 265.08162842 -272.8044873 265.46794434 -273.47045898 265.8659668 C-275.09692534 266.84532759 -276.71310121 267.84172626 -278.328125 268.83984375 C-281.60071073 270.26083492 -282.61048483 269.99108807 -286 269 C-288.23645233 267.83976343 -290.35783353 266.65087568 -292.50390625 265.34375 C-293.13054672 264.96992187 -293.75718719 264.59609375 -294.40281677 264.2109375 C-296.46034275 262.98097557 -298.51138677 261.74062135 -300.5625 260.5 C-302.00811986 259.6328903 -303.4540883 258.76636152 -304.90039062 257.90039062 C-315.09957321 251.78486762 -325.26167143 245.6071841 -335.41625977 239.41796875 C-344.23823563 234.04513069 -353.11101238 228.7610898 -362 223.5 C-372.61130098 217.21953143 -383.18099227 210.877075 -393.70898438 204.45800781 C-403.09842559 198.73548064 -412.53738361 193.10060119 -422 187.5 C-432.61130098 181.21953143 -443.18099227 174.877075 -453.70898438 168.45800781 C-463.09842559 162.73548064 -472.53738361 157.10060119 -482 151.5 C-493.17162307 144.88789582 -504.29378267 138.20164529 -515.37573242 131.44042969 C-521.76349966 127.54804424 -528.17447896 123.69807444 -534.61328125 119.890625 C-535.33925507 119.46112549 -536.06522888 119.03162598 -536.8132019 118.58911133 C-540.34985347 116.49792019 -543.88897752 114.41106814 -547.43164062 112.33007812 C-548.72140082 111.56908948 -550.01111654 110.80802546 -551.30078125 110.046875 C-552.42653564 109.38526367 -553.55229004 108.72365234 -554.7121582 108.04199219 C-555.797146 107.36813477 -556.88213379 106.69427734 -558 106 C-558.90307325 105.52631532 -558.90307325 105.52631532 -559.82439041 105.04306126 C-562.6220053 103.40406546 -564.63517306 102.16385261 -565.63284588 98.98112679 C-565.86330843 96.44100317 -565.86610438 93.98603052 -565.79467773 91.4362793 C-565.79569992 90.47969925 -565.79672211 89.5231192 -565.79777527 88.53755188 C-565.79290598 85.38196885 -565.73849466 82.2292949 -565.68359375 79.07421875 C-565.67053525 76.88419678 -565.66057227 74.69415435 -565.65357971 72.50410461 C-565.62687444 66.74469371 -565.55812882 60.98652197 -565.48065186 55.2276001 C-565.40899705 49.34916955 -565.37706331 43.47053842 -565.34179688 37.59179688 C-565.26676186 26.06065399 -565.14731639 14.5304301 -565 3 C-561.23283763 4.46971074 -557.80946736 6.1502078 -554.30078125 8.16796875 C-553.18727295 8.80629639 -552.07376465 9.44462402 -550.92651367 10.10229492 C-549.72180679 10.79730147 -548.51713651 11.49237148 -547.3125 12.1875 C-546.0578559 12.90823293 -544.80305197 13.6286877 -543.5480957 14.34887695 C-534.17038581 19.73432917 -524.80897968 25.14826734 -515.44702148 30.56103516 C-508.44644739 34.60382275 -501.42010117 38.59789676 -494.375 42.5625 C-485.64603747 47.4761941 -476.98171789 52.49231042 -468.33813477 57.55444336 C-460.52323331 62.12559003 -452.6758878 66.63801221 -444.8125 71.125 C-444.21841339 71.46405365 -443.62432678 71.8031073 -443.01223755 72.1524353 C-438.04461404 74.9870029 -433.07517729 77.81838446 -428.10498047 80.6484375 C-417.05760565 86.93955321 -406.05279551 93.29705634 -395.08105469 99.71923828 C-388.254153 103.70689402 -381.39121574 107.62468652 -374.5 111.5 C-366.73014311 115.86975851 -359.0044786 120.30706231 -351.3125 124.8125 C-339.03473004 132.00317489 -326.68318808 139.06086774 -314.32080078 146.10449219 C-311.15715761 147.91029469 -307.99762961 149.72304082 -304.83984375 151.5390625 C-303.4161145 152.35673096 -303.4161145 152.35673096 -301.96362305 153.19091797 C-300.22322422 154.19084482 -298.48372139 155.19233375 -296.74536133 156.19580078 C-295.21645942 157.07303698 -293.67845037 157.93465555 -292.13037109 158.77758789 C-290 160 -290 160 -288.07666016 161.43920898 C-285.9498862 162.88689334 -284.5566879 163.63855673 -282 164 C-277.54253226 162.53910193 -273.80516403 160.08639449 -269.875 157.5625 C-268.71588769 156.8508359 -267.55480115 156.14237813 -266.3918457 155.43701172 C-264.03041178 153.99930312 -261.67995846 152.54589641 -259.33740234 151.07763672 C-254.67109596 148.17271592 -249.93104899 145.40113751 -245.1875 142.625 C-243.39002936 141.56090134 -241.59316943 140.4957705 -239.796875 139.4296875 C-233.18948077 135.51530002 -226.5640001 131.63191027 -219.9375 127.75 C-219.32956604 127.39379578 -218.72163208 127.03759155 -218.09527588 126.67059326 C-213.10220741 123.74504319 -208.10855679 120.82048744 -203.11486816 117.89599609 C-198.76380661 115.34779516 -194.41297039 112.79921011 -190.0625 110.25 C-189.45373016 109.89329224 -188.84496033 109.53658447 -188.21774292 109.16906738 C-180.46931917 104.62818227 -172.72895912 100.07395984 -165 95.5 C-156.65768069 90.56305663 -148.30115781 85.65067263 -139.9375 80.75 C-139.32929413 80.3936145 -138.72108826 80.037229 -138.0944519 79.67004395 C-133.10165907 76.74467534 -128.1082724 73.8203209 -123.11486816 70.89599609 C-118.76380661 68.34779516 -114.41297039 65.79921011 -110.0625 63.25 C-109.45373016 62.89329224 -108.84496033 62.53658447 -108.21774292 62.16906738 C-100.46931917 57.62818227 -92.72895912 53.07395984 -85 48.5 C-76.65767923 43.56305576 -68.30100977 38.65092695 -59.9375 33.75 C-59.33228516 33.39527618 -58.72707031 33.04055237 -58.10351562 32.67507935 C-51.77834192 28.96792512 -45.45175715 25.26320502 -39.12171936 21.56436157 C-36.53496862 20.05259146 -33.94886375 18.53971847 -31.36282349 17.0267334 C-30.14755077 16.31613702 -28.93196848 15.60606974 -27.71603394 14.89660645 C-19.99247686 10.3997591 -19.99247686 10.3997591 -12.375 5.72705078 C-11.78319946 5.35528214 -11.19139893 4.98351349 -10.58166504 4.60047913 C-8.93797525 3.56335959 -7.29986306 2.51741557 -5.66210938 1.47094727 C-3 0 -3 0 0 0 Z M-11.109375 8.82421875 C-12.16326416 9.43434814 -13.21715332 10.04447754 -14.30297852 10.6730957 C-16.00925415 11.67022583 -16.00925415 11.67022583 -17.75 12.6875 C-18.929442 13.37292246 -20.10904988 14.05805955 -21.28881836 14.74291992 C-31.40050509 20.62039107 -41.47048925 26.5687204 -51.52929688 32.53613281 C-55.28545239 34.76161784 -59.04850471 36.97530821 -62.8125 39.1875 C-63.50239014 39.59315186 -64.19228027 39.99880371 -64.90307617 40.41674805 C-68.22771128 42.37137366 -71.55306821 44.32476578 -74.87890625 46.27734375 C-81.96791311 50.44127071 -89.04795151 54.61976334 -96.11749268 58.81668091 C-106.52207342 64.99329125 -116.93506348 71.1519156 -127.41699219 77.19677734 C-134.62092295 81.3516829 -141.78828593 85.56731409 -148.95117188 89.79248047 C-150.9298509 90.95865617 -152.90992395 92.12241878 -154.890625 93.28515625 C-161.97623148 97.44562504 -169.05197955 101.62215463 -176.11749268 105.81668091 C-186.52207342 111.99329125 -196.93506348 118.1519156 -207.41699219 124.19677734 C-214.62092295 128.3516829 -221.78828593 132.56731409 -228.95117188 136.79248047 C-230.9298509 137.95865617 -232.90992395 139.12241878 -234.890625 140.28515625 C-236.21875935 141.06508824 -237.54688419 141.84503644 -238.875 142.625 C-239.544104 143.01776123 -240.21320801 143.41052246 -240.90258789 143.81518555 C-244.94203577 146.19000813 -248.97364444 148.57755274 -252.99847412 150.9770813 C-255.41549638 152.41799683 -257.83366786 153.85697923 -260.25177002 155.29608154 C-261.44489274 156.00700042 -262.63741325 156.71893108 -263.82928467 157.4319458 C-266.58378354 159.07967174 -269.3447815 160.71020835 -272.12915039 162.30712891 C-274.93605809 163.89961472 -274.93605809 163.89961472 -277.16577148 165.57958984 C-279.22986444 166.9723013 -280.5218264 167.70452658 -283 168 C-287.3757627 166.61012221 -291.06057226 164.29929552 -294.9375 161.875 C-296.05213623 161.2135498 -297.16677246 160.55209961 -298.31518555 159.87060547 C-301.56006899 157.93984709 -304.78022283 155.97223116 -308 154 C-310.12667169 152.73786468 -312.26057703 151.48922031 -314.39697266 150.24365234 C-316.37964024 149.08579065 -318.35380591 147.91421979 -320.328125 146.7421875 C-326.36740026 143.17744996 -332.46916712 139.72114547 -338.5625 136.25 C-347.4026362 131.21304262 -356.22009807 126.14157663 -365 121 C-373.55541029 115.99240718 -382.14024385 111.03845061 -390.75 106.125 C-391.3332605 105.79211975 -391.916521 105.4592395 -392.51745605 105.11627197 C-396.67741229 102.74261615 -400.83857123 100.371073 -405 98 C-409.75082192 95.29310624 -414.50111834 92.58529654 -419.25 89.875 C-420.12537415 89.37543793 -420.12537415 89.37543793 -421.01843262 88.86578369 C-430.02121023 83.72566113 -438.98461691 78.52066225 -447.93164062 73.28417969 C-455.51244973 68.85328433 -463.12379751 64.47715221 -470.75 60.125 C-471.3332605 59.79211975 -471.916521 59.4592395 -472.51745605 59.11627197 C-476.67741229 56.74261615 -480.83857123 54.371073 -485 52 C-489.75082197 49.29310621 -494.50107177 46.585215 -499.25 43.875 C-499.83192108 43.54295563 -500.41384216 43.21091125 -501.01339722 42.86880493 C-509.14032631 38.22954696 -517.23716606 33.54100746 -525.3125 28.8125 C-533.48900454 24.02658791 -541.69490178 19.29625513 -549.9375 14.625 C-550.93370361 14.05885986 -551.92990723 13.49271973 -552.95629883 12.90942383 C-553.86661865 12.39532959 -554.77693848 11.88123535 -555.71484375 11.3515625 C-556.52042725 10.89604004 -557.32601074 10.44051758 -558.15600586 9.97119141 C-559.80011217 8.92233375 -559.80011217 8.92233375 -561 9 C-561.74643066 20.53227969 -562.31224909 32.05871776 -562.6579895 43.6103487 C-562.82411808 48.97806881 -563.04831514 54.32913946 -563.4140625 59.68725586 C-565.78287333 81.62541833 -565.78287333 81.62541833 -559.62023926 101.97316742 C-552.52029867 109.64655712 -542.65237314 113.58104818 -533.09619141 117.28598022 C-526.59680154 119.87688799 -520.86981964 123.73319635 -515 127.5 C-512.71547687 128.90791689 -510.42053692 130.29751257 -508.125 131.6875 C-507.48046875 132.079375 -506.8359375 132.47125 -506.171875 132.875 C-499.14470102 137.13389332 -492.07120829 141.31479203 -485 145.5 C-474.38869902 151.78046857 -463.81900773 158.122925 -453.29101562 164.54199219 C-443.90157441 170.26451936 -434.46261639 175.89939881 -425 181.5 C-414.38869902 187.78046857 -403.81900773 194.122925 -393.29101562 200.54199219 C-383.90157441 206.26451936 -374.46261639 211.89939881 -365 217.5 C-354.96303915 223.44053616 -344.95818668 229.42831369 -335 235.5 C-321.31027848 243.84528755 -307.53038615 252.03551688 -293.73060608 260.19723511 C-291.23442613 261.67391671 -288.78888733 263.14675559 -286.40600586 264.80322266 C-284.07844817 266.20737306 -284.07844817 266.20737306 -281.53222656 265.86791992 C-278.63989208 264.87657311 -276.1482734 263.61745352 -273.484375 262.11328125 C-272.4109082 261.51177246 -271.33744141 260.91026367 -270.23144531 260.29052734 C-269.07089818 259.63129994 -267.91041815 258.9719544 -266.75 258.3125 C-265.54040341 257.63167648 -264.33043657 256.95151042 -263.12011719 256.27197266 C-260.62891281 254.87207318 -258.13981022 253.46854193 -255.65234375 252.06201172 C-251.22335454 249.55895556 -246.78088689 247.08018072 -242.33886719 244.6003418 C-232.42825656 239.06459367 -222.54186183 233.48634829 -212.66308594 227.89404297 C-204.56818232 223.31414118 -196.45339963 218.77023461 -188.3359375 214.23046875 C-181.38030205 210.33841963 -174.43614796 206.42666228 -167.5 202.5 C-158.46059691 197.38265197 -149.40185704 192.3006682 -140.3359375 187.23046875 C-133.38030205 183.33841963 -126.43614796 179.42666228 -119.5 175.5 C-110.46059691 170.38265197 -101.40185704 165.3006682 -92.3359375 160.23046875 C-85.38030205 156.33841963 -78.43614796 152.42666228 -71.5 148.5 C-63.51221842 143.97799142 -55.51108697 139.48058863 -47.5 135 C-39.14053242 130.32190957 -30.78351561 125.63955666 -22.4375 120.9375 C-21.50421875 120.41349609 -20.5709375 119.88949219 -19.609375 119.34960938 C-18.72636719 118.85138672 -17.84335937 118.35316406 -16.93359375 117.83984375 C-16.17103271 117.41050537 -15.40847168 116.98116699 -14.62280273 116.53881836 C-13.75727783 116.0310083 -12.89175293 115.52319824 -12 115 C-11.34851266 114.7068157 -10.69702532 114.4136314 -10.02579594 114.11156273 C-5.66643422 111.93035261 -5.66643422 111.93035261 -3.27231503 107.88330555 C-3.01261663 105.18735331 -3.01021193 102.5929699 -3.09179688 99.88549805 C-3.09062866 98.87039658 -3.08946045 97.8552951 -3.08825684 96.80943298 C-3.09382446 93.45879619 -3.15601793 90.11173241 -3.21875 86.76171875 C-3.23367313 84.437179 -3.2450598 82.11261407 -3.25305176 79.78804016 C-3.28357931 73.67339455 -3.36215084 67.56027225 -3.45068359 61.44622803 C-3.53255987 55.20589812 -3.56906724 48.96532174 -3.609375 42.72460938 C-3.69514186 30.48240407 -3.83165889 18.24132876 -4 6 C-6.91463774 6 -8.59515015 7.36276622 -11.109375 8.82421875 Z " fill="#F1EFE7" transform="translate(900,471)"/>
<path d="M0 0 C0.39808276 14.42910711 0.69621822 28.85735738 0.88080692 43.29083824 C0.96827917 49.99377924 1.08737214 56.6932994 1.2824707 63.39404297 C1.4676448 69.86534274 1.56891441 76.33309784 1.61291313 82.8068428 C1.64424935 85.27204857 1.70545456 87.73706667 1.79741096 90.20075607 C2.47107886 109.00310192 2.47107886 109.00310192 -1.64082336 113.98997307 C-5.64436909 117.30706993 -10.0488479 119.34899952 -14.8877182 121.16620922 C-18.04104995 122.41093847 -20.83855025 124.08148626 -23.7578125 125.80078125 C-25.87912792 126.97331095 -28.00153599 128.14386592 -30.125 129.3125 C-32.46913511 130.60868621 -34.81297129 131.90539319 -37.15625 133.203125 C-38.30738281 133.84056641 -39.45851563 134.47800781 -40.64453125 135.13476562 C-45.65247156 137.91857412 -50.64036085 140.73723532 -55.625 143.5625 C-63.57033782 148.06513412 -71.52906205 152.54283428 -79.5 157 C-87.51125116 161.48029314 -95.51222007 165.97799235 -103.5 170.5 C-112.53940309 175.61734803 -121.59814296 180.6993318 -130.6640625 185.76953125 C-137.61969795 189.66158037 -144.56385204 193.57333772 -151.5 197.5 C-160.53940309 202.61734803 -169.59814296 207.6993318 -178.6640625 212.76953125 C-185.61969795 216.66158037 -192.56385204 220.57333772 -199.5 224.5 C-207.48778086 229.02200817 -215.48884203 233.51953916 -223.5 238 C-230.63006352 241.98873099 -237.75735109 245.98215951 -244.87133789 249.99951172 C-246.77308844 251.07336933 -248.67590253 252.14534588 -250.57983398 253.21533203 C-255.38783624 255.92440732 -260.1601784 258.67955727 -264.89453125 261.515625 C-265.84682617 262.07942871 -266.79912109 262.64323242 -267.78027344 263.22412109 C-269.58744968 264.2964382 -271.38684582 265.38201733 -273.17675781 266.48291016 C-273.9859668 266.96034668 -274.79517578 267.4377832 -275.62890625 267.9296875 C-276.6818689 268.56753174 -276.6818689 268.56753174 -277.75610352 269.21826172 C-280.88400134 270.30797218 -282.81961353 269.85422873 -286 269 C-288.74365234 267.62744141 -288.74365234 267.62744141 -291.5859375 265.8515625 C-292.66488281 265.18576172 -293.74382812 264.51996094 -294.85546875 263.83398438 C-295.42700684 263.47522217 -295.99854492 263.11645996 -296.58740234 262.74682617 C-299.05225642 261.19998043 -301.53026363 259.67480085 -304.00787354 258.14849854 C-305.3217643 257.33907547 -306.63502711 256.5286323 -307.94769287 255.71722412 C-314.57773882 251.62474993 -321.27633236 247.65141859 -327.98516846 243.68988037 C-339.27418991 237.02302771 -350.5150251 230.2831247 -361.70898438 223.45800781 C-371.09842559 217.73548064 -380.53738361 212.10060119 -390 206.5 C-400.61130098 200.21953143 -411.18099227 193.877075 -421.70898438 187.45800781 C-431.09842559 181.73548064 -440.53738361 176.10060119 -450 170.5 C-460.61130098 164.21953143 -471.18099227 157.877075 -481.70898438 151.45800781 C-491.09842604 145.73548036 -500.53739492 140.10062138 -510 134.5 C-523.66241297 126.41353842 -537.25192343 118.21300159 -550.80224609 109.94018555 C-553.78534159 107.94979773 -553.78534159 107.94979773 -556.56314087 107.22033691 C-559.987551 105.90319469 -561.67613452 104.87562392 -564 102 C-565.94742986 94.88305305 -565.15652045 87.05395327 -564.9765625 79.7578125 C-564.95790414 77.54681598 -564.94367288 75.33577803 -564.9336853 73.12472534 C-564.89555859 67.31377389 -564.79737984 61.50533445 -564.68664551 55.69537354 C-564.58422511 49.76340724 -564.53865039 43.83103371 -564.48828125 37.8984375 C-564.38113185 26.26452311 -564.21053079 14.63247067 -564 3 C-561.62094832 4.26232746 -559.24264702 5.52603542 -556.86474609 6.79052734 C-556.19821518 7.14400742 -555.53168427 7.49748749 -554.84495544 7.86167908 C-549.01361198 10.96490081 -543.30754178 14.25740224 -537.625 17.625 C-529.12055262 22.62877792 -520.56068505 27.5163343 -511.9375 32.3125 C-504.82306224 36.27145374 -497.76373214 40.28094012 -490.81811523 44.52856445 C-484.80204974 48.17869569 -478.64819446 51.57871061 -472.5 55 C-465.19885799 59.06287079 -457.94796889 63.16787019 -450.8203125 67.52734375 C-444.80335431 71.17763172 -438.64893744 74.57829716 -432.5 78 C-425.19885799 82.06287079 -417.94796889 86.16787019 -410.8203125 90.52734375 C-404.80335431 94.17763172 -398.64893744 97.57829716 -392.5 101 C-385.19885799 105.06287079 -377.94796889 109.16787019 -370.8203125 113.52734375 C-364.80335431 117.17763172 -358.64893744 120.57829716 -352.5 124 C-345.19885799 128.06287079 -337.94796889 132.16787019 -330.8203125 136.52734375 C-323.7367848 140.82468389 -316.46717196 144.7958841 -309.22583008 148.8190918 C-301.97438233 152.85920778 -294.83948949 157.03893692 -287.79296875 161.42578125 C-285.3011879 162.83023955 -283.79231246 163.66498699 -281 164 C-278.70499014 163.12363742 -278.70499014 163.12363742 -276.37890625 161.6328125 C-274.99892456 160.8123645 -274.99892456 160.8123645 -273.59106445 159.9753418 C-272.59163818 159.364729 -271.59221191 158.75411621 -270.5625 158.125 C-268.38038121 156.82132518 -266.19808179 155.51795266 -264.015625 154.21484375 C-262.85597671 153.51700203 -261.69647342 152.81891932 -260.53710938 152.12060547 C-255.25983511 148.94851821 -249.93895214 145.8508861 -244.62231445 142.74542236 C-241.56380663 140.95757951 -238.5086229 139.1640741 -235.453125 137.37109375 C-230.46463936 134.44473862 -225.47495342 131.52044081 -220.484375 128.59765625 C-209.64584738 122.24930364 -198.8098104 115.89719242 -188 109.5 C-179.65768069 104.56305663 -171.30115781 99.65067263 -162.9375 94.75 C-162.32929413 94.3936145 -161.72108826 94.037229 -161.0944519 93.67004395 C-156.10165907 90.74467534 -151.1082724 87.8203209 -146.11486816 84.89599609 C-141.76380661 82.34779516 -137.41297039 79.79921011 -133.0625 77.25 C-132.45373016 76.89329224 -131.84496033 76.53658447 -131.21774292 76.16906738 C-123.46931917 71.62818227 -115.72895912 67.07395984 -108 62.5 C-99.65768069 57.56305663 -91.30115781 52.65067263 -82.9375 47.75 C-82.32929413 47.3936145 -81.72108826 47.037229 -81.0944519 46.67004395 C-76.10165907 43.74467534 -71.1082724 40.8203209 -66.11486816 37.89599609 C-46.60615837 26.47144523 -46.60615837 26.47144523 -27.125 15 C-26.24046143 14.47801025 -25.35592285 13.95602051 -24.44458008 13.41821289 C-20.41059733 11.03343631 -16.38640194 8.63472126 -12.3828125 6.19921875 C-11.32682861 5.55823242 -11.32682861 5.55823242 -10.24951172 4.90429688 C-8.95958442 4.11931547 -7.67196304 3.33052619 -6.38720703 2.53710938 C-2.22030692 0 -2.22030692 0 0 0 Z M-12.1875 9.9375 C-12.90873047 10.34718018 -13.62996094 10.75686035 -14.37304688 11.17895508 C-19.5666155 14.14321958 -24.7041925 17.19375082 -29.82055664 20.28881836 C-35.55462796 23.75140773 -41.33603148 27.13014683 -47.125 30.5 C-56.40429283 35.90233311 -65.6752189 41.318571 -74.9375 46.75 C-75.86909943 47.29625534 -75.86909943 47.29625534 -76.81951904 47.85354614 C-85.90689416 53.18243762 -94.99058392 58.51756319 -104.06835938 63.86279297 C-108.26288932 66.33222175 -112.45874502 68.79939785 -116.65429688 71.26708984 C-120.04595529 73.26204663 -123.43740174 75.25736039 -126.828125 77.25390625 C-136.68492004 83.05669688 -146.55190158 88.84205052 -156.42016602 94.62530518 C-165.64119381 100.02938381 -174.85846062 105.43976556 -184.06835938 110.86279297 C-188.26288932 113.33222175 -192.45874502 115.79939785 -196.65429688 118.26708984 C-200.04595529 120.26204663 -203.43740174 122.25736039 -206.828125 124.25390625 C-215.40647155 129.30406188 -223.9920978 134.34173962 -232.5803833 139.37496948 C-238.05387671 142.58282193 -243.52695394 145.79138438 -249 149 C-249.89944336 149.52722656 -250.79888672 150.05445313 -251.72558594 150.59765625 C-253.25841972 151.49645139 -254.79092109 152.39581382 -256.32299805 153.29589844 C-257.66415743 154.08288215 -259.0067137 154.86749142 -260.35083008 155.64941406 C-263.66593113 157.58587018 -266.92393371 159.5814568 -270.14453125 161.671875 C-270.82402832 162.10435547 -271.50352539 162.53683594 -272.20361328 162.98242188 C-273.48276288 163.79971756 -274.75171509 164.63330899 -276.00732422 165.48632812 C-278.94843017 167.34983419 -280.49992305 168.08520315 -283.98046875 167.4921875 C-287.46444803 165.77047976 -290.81103103 163.8986355 -294.125 161.875 C-301.28484577 157.58311718 -308.50421218 153.40407603 -315.75946045 149.27593994 C-325.20357961 143.90218147 -334.623383 138.49101746 -344 133 C-352.55541029 127.99240718 -361.14024385 123.03845061 -369.75 118.125 C-370.3332605 117.79211975 -370.916521 117.4592395 -371.51745605 117.11627197 C-375.67741229 114.74261615 -379.83857123 112.371073 -384 110 C-388.75082192 107.29310624 -393.50111834 104.58529654 -398.25 101.875 C-399.12537415 101.37543793 -399.12537415 101.37543793 -400.01843262 100.86578369 C-409.02121023 95.72566113 -417.98461691 90.52066225 -426.93164062 85.28417969 C-434.51244973 80.85328433 -442.12379751 76.47715221 -449.75 72.125 C-450.3332605 71.79211975 -450.916521 71.4592395 -451.51745605 71.11627197 C-455.67741229 68.74261615 -459.83857123 66.371073 -464 64 C-468.75082192 61.29310624 -473.50111834 58.58529654 -478.25 55.875 C-478.83358276 55.54195862 -479.41716553 55.20891724 -480.01843262 54.86578369 C-489.01181165 49.73102724 -497.96717503 44.53364947 -506.90307617 39.29956055 C-515.35653167 34.35567 -523.85902995 29.500346 -532.37127686 24.65869141 C-540.49840575 20.03481283 -548.55708023 15.3272575 -556.5078125 10.40625 C-558.81337917 8.83619087 -558.81337917 8.83619087 -561 9 C-561.74643066 20.53227969 -562.31224909 32.05871776 -562.6579895 43.6103487 C-562.82411808 48.97806881 -563.04831514 54.32913946 -563.4140625 59.68725586 C-565.78287333 81.62541833 -565.78287333 81.62541833 -559.62023926 101.97316742 C-552.52029867 109.64655712 -542.65237314 113.58104818 -533.09619141 117.28598022 C-526.59680154 119.87688799 -520.86981964 123.73319635 -515 127.5 C-512.71547687 128.90791689 -510.42053692 130.29751257 -508.125 131.6875 C-507.48046875 132.079375 -506.8359375 132.47125 -506.171875 132.875 C-499.14470102 137.13389332 -492.07120829 141.31479203 -485 145.5 C-474.38869902 151.78046857 -463.81900773 158.122925 -453.29101562 164.54199219 C-443.90157441 170.26451936 -434.46261639 175.89939881 -425 181.5 C-414.38869902 187.78046857 -403.81900773 194.122925 -393.29101562 200.54199219 C-383.90157441 206.26451936 -374.46261639 211.89939881 -365 217.5 C-354.96303915 223.44053616 -344.95818668 229.42831369 -335 235.5 C-321.31027848 243.84528755 -307.53038615 252.03551688 -293.73060608 260.19723511 C-291.24548789 261.66737283 -288.82217513 263.12666742 -286.46850586 264.80322266 C-283.16072248 266.40689728 -281.50105579 266.00118453 -278 265 C-275.14833693 263.73751923 -275.14833693 263.73751923 -272.31640625 262.078125 C-271.23601074 261.47154053 -270.15561523 260.86495605 -269.04248047 260.23999023 C-267.88239198 259.57682631 -266.72240092 258.91349193 -265.5625 258.25 C-264.35088152 257.56567549 -263.13879775 256.88217418 -261.92626953 256.19946289 C-258.85630228 254.46839581 -255.79212044 252.72736274 -252.72943115 250.98345947 C-250.15247633 249.51804663 -247.57043305 248.06169993 -244.98828125 246.60546875 C-241.23741611 244.48947996 -237.48895137 242.36933551 -233.7421875 240.24609375 C-227.67286778 236.81029468 -221.58727228 233.40386307 -215.5 230 C-207.48874884 225.51970686 -199.48777993 221.02200765 -191.5 216.5 C-182.46059691 211.38265197 -173.40185704 206.3006682 -164.3359375 201.23046875 C-157.38030205 197.33841963 -150.43614796 193.42666228 -143.5 189.5 C-134.46059691 184.38265197 -125.40185704 179.3006682 -116.3359375 174.23046875 C-109.38030205 170.33841963 -102.43614796 166.42666228 -95.5 162.5 C-86.46059691 157.38265197 -77.40185704 152.3006682 -68.3359375 147.23046875 C-60.44318217 142.81405107 -52.56635954 138.37009864 -44.69702148 133.91210938 C-39.56838217 131.00905583 -34.43197274 128.12072255 -29.28515625 125.25 C-27.60292969 124.31124023 -27.60292969 124.31124023 -25.88671875 123.35351562 C-23.73276354 122.15251475 -21.57787305 120.95318914 -19.421875 119.75585938 C-18.43832031 119.20736328 -17.45476563 118.65886719 -16.44140625 118.09375 C-15.15278687 117.37735352 -15.15278687 117.37735352 -13.83813477 116.64648438 C-12.90155029 116.10314453 -11.96496582 115.55980469 -11 115 C-10.34157325 114.70334599 -9.6831465 114.40669199 -9.00476742 114.10104847 C-4.65730334 111.92368306 -4.65730334 111.92368306 -2.27315617 107.88372612 C-2.01254353 105.18749274 -2.01020096 102.59333386 -2.09179688 99.88549805 C-2.09062866 98.87039658 -2.08946045 97.8552951 -2.08825684 96.80943298 C-2.09382446 93.45879619 -2.15601793 90.11173241 -2.21875 86.76171875 C-2.23367313 84.437179 -2.2450598 82.11261407 -2.25305176 79.78804016 C-2.28357931 73.67339455 -2.36215084 67.56027225 -2.45068359 61.44622803 C-2.53255987 55.20589812 -2.56906724 48.96532174 -2.609375 42.72460938 C-2.69514186 30.48240407 -2.83165889 18.24132876 -3 6 C-6.44467474 6 -9.25839696 8.25888283 -12.1875 9.9375 Z " fill="#F7F5EF" transform="translate(903,660)"/>
<path d="M0 0 C-2.00441308 6.25515418 -4.26779658 12.35585944 -6.74609375 18.4375 C-7.10947845 19.3354982 -7.47286316 20.2334964 -7.84725952 21.15870667 C-9.04121865 24.10694329 -10.23924405 27.05350741 -11.4375 30 C-12.27775307 32.07146621 -13.11783798 34.14300064 -13.95776367 36.21459961 C-16.17769244 41.6868052 -18.40180606 47.15729907 -20.62756348 52.62713623 C-22.00320841 56.0078849 -23.37811228 59.38893426 -24.75292969 62.77001953 C-27.43663813 69.36866115 -30.12399471 75.96581158 -32.8125 82.5625 C-33.23183807 83.59221924 -33.65117615 84.62193848 -34.08322144 85.68286133 C-38.62501975 96.83153121 -43.19598282 107.96130964 -48 119 C-49.95486803 116.06769795 -50.89560893 113.69726563 -52.00854492 110.375 C-52.40093857 109.21122833 -52.79333221 108.04745667 -53.19761658 106.84841919 C-53.62526635 105.56562359 -54.05288274 104.28281686 -54.48046875 103 C-54.92989985 101.66292651 -55.37978419 100.3260053 -55.83009338 98.98922729 C-56.78867834 96.14136123 -57.74477448 93.29267743 -58.69885254 90.44329834 C-61.18348705 83.02384473 -63.68360914 75.60960494 -66.18359375 68.1953125 C-66.4323035 67.45725498 -66.68101326 66.71919746 -66.93725967 65.95877457 C-72.04608421 50.80216709 -77.28741611 35.69358534 -82.60620117 20.609375 C-83.03726418 19.38397507 -83.03726418 19.38397507 -83.47703552 18.13381958 C-83.99877766 16.65157044 -84.52231246 15.16995019 -85.04823303 13.68917847 C-86.52609585 9.49294246 -87.81749945 5.28604343 -89 1 C-84.56855955 2.59213429 -80.63812882 4.86772272 -76.6171875 7.28125 C-75.57306198 7.90247742 -75.57306198 7.90247742 -74.50784302 8.53625488 C-72.29487992 9.85415624 -70.08497573 11.17709668 -67.875 12.5 C-66.38169613 13.38963473 -64.8882084 14.2789609 -63.39453125 15.16796875 C-61.96858803 16.01795751 -60.54280136 16.86820895 -59.1171875 17.71875 C-58.44839569 18.11775513 -57.77960388 18.51676025 -57.09054565 18.92785645 C-54.35296963 20.56693102 -51.6554912 22.22967254 -49 24 C-44.1548957 23.71159081 -40.68480481 21.99828021 -36.4921875 19.6484375 C-35.88545197 19.31131744 -35.27871643 18.97419739 -34.65359497 18.62686157 C-32.72264307 17.55116624 -30.7989021 16.46324342 -28.875 15.375 C-27.60721169 14.66717855 -26.33898551 13.96014076 -25.0703125 13.25390625 C-18.0818395 9.35205586 -11.16004623 5.35673879 -4.29736328 1.23681641 C-2 0 -2 0 0 0 Z " fill="#020202" transform="translate(660,1006)"/>
<path d="M0 0 C2.85087267 1.33424157 5.59338557 2.7790501 8.34277344 4.31201172 C9.98330688 5.22454712 9.98330688 5.22454712 11.65698242 6.15551758 C12.83358803 6.81428895 14.01009941 7.47322864 15.18652344 8.13232422 C16.41049733 8.81546625 17.63453784 9.49848894 18.85864258 10.18139648 C28.54685078 15.592882 38.19115904 21.07974538 47.81347656 26.60742188 C53.49710204 29.87135296 59.18490497 33.12797966 64.87402344 36.38232422 C65.47762695 36.72766205 66.08123047 37.07299988 66.703125 37.42880249 C74.52454057 41.90184544 82.36923474 46.3284509 90.25610352 50.68505859 C99.45677839 55.77501888 108.56500826 61.02732102 117.68652344 66.25732422 C122.41471637 68.96736098 127.14368095 71.67604113 131.87402344 74.38232422 C132.77820511 74.89965118 132.77820511 74.89965118 133.70065308 75.4274292 C141.52289476 79.90092527 149.36841018 84.32799542 157.25610352 88.68505859 C166.45677839 93.77501888 175.56500826 99.02732102 184.68652344 104.25732422 C189.41471643 106.96736102 194.1437282 109.67595848 198.87402344 112.38232422 C199.47149384 112.72421783 200.06896423 113.06611145 200.68453979 113.41836548 C208.8480258 118.08783011 217.03255827 122.7162285 225.27124023 127.25195312 C228.78564797 129.18802883 232.26213662 131.16574306 235.68652344 133.25732422 C234.33025098 137.3261416 232.50117168 137.80760696 228.80761719 139.91748047 C228.20891312 140.2633168 227.61020905 140.60915314 226.99336243 140.96546936 C225.70910549 141.70621591 224.42253208 142.44295792 223.13391113 143.17608643 C219.7700751 145.09029607 216.42295689 147.03339075 213.07324219 148.97216797 C212.41740143 149.35062866 211.76156067 149.72908936 211.08584595 150.11901855 C206.47697576 152.78286163 201.92652287 155.52188063 197.43652344 158.38232422 C186.65574643 165.22877136 175.64945308 171.70841625 164.68652344 178.25732422 C154.59375165 184.28944057 144.53835466 190.38163102 134.4909668 196.48895264 C120.62322359 204.91686544 106.70804197 213.26493332 92.78027344 221.59326172 C83.87958675 226.92142508 75.01390886 232.30669108 66.14901733 237.69412231 C55.35189503 244.25497967 44.52848085 250.77083513 33.68652344 257.25732422 C20.98023599 264.86022598 8.3077278 272.51388 -4.31347656 280.25732422 C-12.251687 276.04297029 -19.93329403 271.50354853 -27.56347656 266.75732422 C-29.86999471 265.32898953 -32.17775707 263.90266911 -34.48535156 262.47607422 C-35.35075562 261.94046875 -35.35075562 261.94046875 -36.23364258 261.39404297 C-41.74271917 257.98614233 -47.2757193 254.61834037 -52.81347656 251.25732422 C-60.89419036 246.34910606 -68.95327769 241.40697717 -77.00097656 236.44482422 C-86.78152531 230.41469493 -96.59229581 224.43683691 -106.41952515 218.48324585 C-114.74727971 213.43688624 -123.04389772 208.34345377 -131.31396484 203.203125 C-138.51378852 198.73545727 -145.75392585 194.33527598 -153.00097656 189.94482422 C-163.31852643 183.69414328 -173.60643542 177.39802254 -183.87475586 171.06665039 C-190.84036169 166.7736406 -197.82089601 162.50623348 -204.81347656 158.25732422 C-206.66900334 157.12721116 -208.52447143 155.99700172 -210.37988281 154.86669922 C-214.14103454 152.57601994 -217.90712802 150.29378176 -221.67697144 148.01745605 C-224.11128398 146.54543229 -226.54184569 145.06729281 -228.97167969 143.58789062 C-230.15254604 142.87075088 -231.33499197 142.15620532 -232.51904297 141.44433594 C-234.16158723 140.45638496 -235.79823651 139.45865284 -237.43457031 138.46044922 C-238.37743896 137.8897168 -239.32030762 137.31898438 -240.29174805 136.73095703 C-241.29250366 136.00150879 -241.29250366 136.00150879 -242.31347656 135.25732422 C-242.31347656 134.59732422 -242.31347656 133.93732422 -242.31347656 133.25732422 C-241.70689209 132.93159424 -241.10030762 132.60586426 -240.4753418 132.27026367 C-228.30336143 125.72595499 -216.18595574 119.10100838 -204.17016602 112.27392578 C-196.78331984 108.07931272 -189.36763039 103.93900624 -181.93847656 99.81982422 C-173.17887833 94.96182668 -164.42655112 90.09144336 -155.68847656 85.19482422 C-154.66367187 84.62054688 -153.63886719 84.04626953 -152.58300781 83.45458984 C-149.4929622 81.72252771 -146.40316848 79.99001719 -143.31347656 78.25732422 C-130.45225661 71.04477813 -117.58358316 63.84664731 -104.68847656 56.69482422 C-96.37648104 52.08434742 -88.08216433 47.44502748 -79.81347656 42.75732422 C-70.414335 37.42874152 -60.97786808 32.16975527 -51.52954102 26.92895508 C-44.7571629 23.17180642 -37.98871988 19.40786068 -31.22998047 15.6262207 C-29.10717235 14.43866155 -26.98318126 13.25321408 -24.85791016 12.07006836 C-20.4700083 9.62118026 -16.10364578 7.15813119 -11.81738281 4.53466797 C-11.16874268 4.1427124 -10.52010254 3.75075684 -9.85180664 3.34692383 C-8.22039491 2.35293194 -6.60210877 1.3374785 -4.98535156 0.31982422 C-2.31347656 -0.74267578 -2.31347656 -0.74267578 0 0 Z M-8.04394531 6.30029297 C-8.62200424 6.61993011 -9.20006317 6.93956726 -9.79563904 7.26889038 C-11.69977573 8.3233464 -13.6003972 9.38397173 -15.50097656 10.44482422 C-16.82748701 11.18134066 -18.15414862 11.91758491 -19.48095703 12.65356445 C-28.24750883 17.52238413 -36.98549608 22.44144611 -45.70678711 27.39086914 C-54.19813677 32.20660452 -62.73329387 36.94177535 -71.27148438 41.67382812 C-78.43088178 45.64548699 -85.56828284 49.65336215 -92.68847656 53.69482422 C-101.97989702 58.96692234 -111.32495814 64.13793083 -120.68493652 69.2868042 C-129.72821297 74.26282491 -138.73517314 79.29879425 -147.71191406 84.39404297 C-156.20186297 89.20817601 -164.73504863 93.94274788 -173.27148438 98.67382812 C-180.43088159 102.64548689 -187.5682976 106.65333603 -194.68847656 110.69482422 C-208.16121032 118.34001341 -221.7380633 125.79654603 -235.31347656 133.25732422 C-234.12907078 136.81054157 -233.4329724 137.07083615 -230.29785156 138.89404297 C-229.46560059 139.38461182 -228.63334961 139.87518066 -227.77587891 140.38061523 C-226.88078613 140.8968042 -225.98569336 141.41299316 -225.06347656 141.94482422 C-223.21680048 143.03021419 -221.37044592 144.1161514 -219.52441406 145.20263672 C-218.62432617 145.72889648 -217.72423828 146.25515625 -216.796875 146.79736328 C-213.73417233 148.59789041 -210.7085928 150.44874963 -207.68847656 152.31982422 C-202.84380779 155.31482173 -197.98817458 158.29092498 -193.12597656 161.25732422 C-185.61410091 165.84227352 -178.11864392 170.45356467 -170.62597656 175.06982422 C-159.40408691 181.98208907 -148.15277569 188.84482855 -136.89013672 195.69042969 C-126.9814564 201.71600391 -117.09337438 207.77459714 -107.22094727 213.859375 C-96.35529668 220.5557514 -85.46656053 227.2112155 -74.55075073 233.82540894 C-66.01380621 238.99912214 -57.49851956 244.20652575 -49.00097656 249.44482422 C-40.59314151 254.62600322 -32.18075849 259.79940844 -23.75097656 264.94482422 C-22.82953857 265.50903076 -21.90810059 266.0732373 -20.95874023 266.65454102 C-19.22887972 267.70878188 -17.48712214 268.74381101 -15.73266602 269.7565918 C-13.31347656 271.25732422 -13.31347656 271.25732422 -11.21264648 273.06079102 C-8.79097357 274.95518482 -7.37562019 275.8302018 -4.31347656 276.25732422 C1.3828759 274.21936499 6.21140633 270.99672853 11.24902344 267.69482422 C12.70581434 266.77921557 14.16481371 265.86711154 15.62597656 264.95849609 C19.02130494 262.83727794 22.38959339 260.67787846 25.74989319 258.5017395 C28.43906023 256.77376868 31.15044593 255.08235436 33.86437988 253.39363098 C35.65286837 252.27831185 37.43396881 251.15191137 39.21386719 250.02294922 C45.81768415 245.89616718 52.54773922 241.97301728 59.24902344 238.00732422 C71.47241271 230.77260789 83.64157093 223.45765138 95.75927734 216.046875 C101.21014 212.71452944 106.66541747 209.38946611 112.12402344 206.06982422 C112.70197662 205.71825256 113.27992981 205.36668091 113.87539673 205.00445557 C124.27002749 198.68552562 134.72707507 192.4747264 145.19674683 186.28115845 C154.0586272 181.03641502 162.86084124 175.71376491 171.59179688 170.25292969 C180.30217155 164.82816712 189.13823607 159.61761929 197.96923828 154.39266968 C208.59768714 148.10401429 219.18116279 141.75022073 229.68652344 135.25732422 C225.9412929 130.77567194 221.01526016 128.54953619 215.93652344 125.88232422 C207.85781219 121.56168201 199.89022961 117.09898256 191.99902344 112.44482422 C183.46331715 107.41997332 174.85946814 102.54133066 166.18652344 97.75732422 C157.66082715 93.0538677 149.20138724 88.26148138 140.81152344 83.31982422 C131.95369466 78.10602486 123.00906442 73.07616775 113.99902344 68.13232422 C103.10228817 62.15232858 92.26971673 56.07398752 81.49658203 49.87353516 C75.9813521 46.7014394 70.45934989 43.54116889 64.93652344 40.38232422 C64.34401794 40.04334106 63.75151245 39.70435791 63.14105225 39.35510254 C53.68192953 33.94538628 44.18716815 28.60195501 34.67285156 23.28979492 C27.74133107 19.41679109 20.83021754 15.50976818 13.93652344 11.56982422 C13.07293213 11.07643555 12.20934082 10.58304687 11.31958008 10.07470703 C8.09692808 8.22912114 4.88953167 6.38326451 1.73339844 4.42529297 C-2.21858962 2.17024635 -4.3150622 4.22957458 -8.04394531 6.30029297 Z " fill="#F5F2EB" transform="translate(622.3134765625,268.74267578125)"/>
</svg>
